<svg xmlns="http://www.w3.org/2000/svg" xmlns:xlink="http://www.w3.org/1999/xlink" width="500" zoomAndPan="magnify" viewBox="0 0 375 374.999991" height="500" preserveAspectRatio="xMidYMid meet" version="1.0"><defs><g/><clipPath id="cdf016afa9"><path d="M 150 116.03125 L 225.429688 116.03125 L 225.429688 190 L 150 190 Z M 150 116.03125 " clip-rule="nonzero"/></clipPath><clipPath id="e03eda9ab9"><path d="M 178 162 L 197 162 L 197 198.53125 L 178 198.53125 Z M 178 162 " clip-rule="nonzero"/></clipPath></defs><rect x="-37.5" width="450" fill="#ffffff" y="-37.499999" height="449.999989" fill-opacity="1"/><rect x="-37.5" width="450" fill="#ffffff" y="-37.499999" height="449.999989" fill-opacity="1"/><rect x="-37.5" width="450" fill="#ffffff" y="-37.499999" height="449.999989" fill-opacity="1"/><g clip-path="url(#cdf016afa9)"><path fill="#9531c7" d="M 150.84375 160.910156 C 151.621094 164.523438 152.875 167.976562 154.648438 171.21875 C 158.558594 178.382812 164.863281 184.15625 172.316406 187.5 C 173.671875 188.117188 175.085938 188.636719 176.488281 189.101562 C 176.125 187.609375 175.8125 186.0625 175.550781 184.5625 C 175.503906 184.097656 175.394531 183.636719 175.339844 183.222656 C 174.503906 182.867188 173.726562 182.503906 172.945312 182.144531 C 166.484375 178.894531 161.269531 173.539062 158.195312 167.097656 C 156.890625 164.3125 156.003906 161.375 155.535156 158.390625 C 155.019531 154.984375 155.019531 151.535156 155.589844 148.183594 C 156.167969 144.941406 157.203125 141.796875 158.714844 138.859375 C 160.488281 135.40625 162.9375 132.261719 165.800781 129.6875 C 168.824219 126.957031 172.316406 124.839844 176.121094 123.40625 C 180.085938 121.910156 184.304688 121.238281 188.53125 121.339844 C 192.746094 121.441406 196.921875 122.320312 200.722656 124.019531 C 204.421875 125.617188 207.816406 127.941406 210.683594 130.773438 C 213.5 133.503906 215.738281 136.75 217.347656 140.304688 C 218.761719 143.332031 219.648438 146.554688 220.011719 149.851562 C 220.425781 153.375 220.226562 156.972656 219.4375 160.425781 C 218.757812 163.515625 217.617188 166.484375 216.066406 169.234375 C 212.671875 175.226562 207.339844 180.074219 201.007812 182.910156 C 200.605469 183.089844 200.207031 183.253906 199.808594 183.421875 L 199.621094 184.65625 C 199.378906 186.214844 199.066406 187.753906 198.667969 189.285156 L 198.742188 189.203125 C 200.71875 188.589844 202.648438 187.816406 204.476562 186.941406 C 211.824219 183.332031 217.871094 177.351562 221.519531 170.085938 C 223.136719 166.789062 224.335938 163.234375 224.90625 159.628906 C 225.585938 155.761719 225.585938 151.746094 224.960938 147.828125 C 224.386719 144.0625 223.1875 140.355469 221.46875 136.953125 C 219.441406 132.921875 216.683594 129.269531 213.34375 126.203125 C 209.890625 123.023438 205.847656 120.492188 201.460938 118.785156 C 196.90625 117.011719 192.011719 116.136719 187.121094 116.1875 C 182.246094 116.246094 177.394531 117.25 172.878906 119.125 C 168.550781 120.929688 164.585938 123.558594 161.414062 126.695312 C 158.191406 129.839844 155.480469 133.601562 153.554688 137.667969 C 151.9375 141.125 150.84375 144.886719 150.324219 148.695312 C 149.796875 152.769531 149.953125 156.945312 150.84375 160.910156 Z M 150.84375 160.910156 " fill-opacity="1" fill-rule="nonzero"/></g><path fill="#9531c7" d="M 187.480469 141.78125 L 187.480469 141.855469 C 182.398438 141.855469 178.285156 145.929688 178.285156 150.925781 C 178.285156 155.921875 182.402344 159.996094 187.480469 159.996094 C 192.554688 159.996094 196.675781 155.921875 196.675781 150.878906 C 196.679688 145.851562 192.558594 141.78125 187.480469 141.78125 Z M 187.480469 141.78125 " fill-opacity="1" fill-rule="nonzero"/><path fill="#9531c7" d="M 205.410156 145.617188 C 206.183594 147.371094 206.714844 149.222656 206.972656 151.132812 C 207.28125 153.296875 207.179688 155.457031 206.757812 157.519531 C 206.390625 159.378906 205.71875 161.183594 204.828125 162.832031 C 203.628906 165.046875 202.015625 167.003906 200.085938 168.550781 C 200.1875 168.960938 200.292969 169.320312 200.347656 169.734375 C 200.507812 170.800781 200.507812 171.882812 200.507812 172.964844 L 200.472656 174.574219 L 200.078125 174.9375 C 204.351562 172.410156 207.84375 168.546875 209.875 164.058594 C 210.921875 161.84375 211.597656 159.472656 211.910156 157.054688 C 212.273438 154.578125 212.175781 152.054688 211.753906 149.582031 C 211.335938 147.210938 210.5 144.890625 209.40625 142.726562 C 208.054688 140.09375 206.171875 137.726562 203.984375 135.71875 C 201.746094 133.707031 199.191406 132.109375 196.375 131.03125 C 193.308594 129.84375 189.96875 129.273438 186.632812 129.332031 C 183.34375 129.433594 180.066406 130.15625 177.039062 131.496094 C 174.332031 132.679688 171.828125 134.378906 169.691406 136.492188 C 167.609375 138.605469 165.839844 141.082031 164.640625 143.753906 C 163.648438 145.921875 162.972656 148.292969 162.660156 150.714844 C 162.296875 153.394531 162.394531 156.121094 162.972656 158.753906 C 163.445312 161.125 164.273438 163.390625 165.476562 165.503906 C 167.507812 169.214844 170.53125 172.414062 174.183594 174.625 L 174.183594 173.179688 C 174.183594 172.050781 174.132812 171.019531 174.335938 169.9375 L 174.652344 168.546875 C 172.457031 166.640625 170.691406 164.320312 169.492188 161.691406 C 168.710938 159.945312 168.1875 158.085938 167.925781 156.179688 C 167.671875 154.222656 167.71875 152.214844 168.082031 150.253906 C 168.449219 148.351562 169.070312 146.542969 169.960938 144.84375 C 171.003906 142.734375 172.460938 140.878906 174.238281 139.28125 C 176.011719 137.6875 178.042969 136.449219 180.234375 135.574219 C 182.679688 134.644531 185.34375 134.179688 187.949219 134.230469 C 190.554688 134.285156 193.160156 134.902344 195.558594 135.929688 C 197.746094 136.914062 199.675781 138.25 201.398438 139.898438 C 203.0625 141.550781 204.421875 143.507812 205.410156 145.617188 Z M 205.410156 145.617188 " fill-opacity="1" fill-rule="nonzero"/><g clip-path="url(#e03eda9ab9)"><path fill="#9531c7" d="M 187.480469 162.667969 C 182.445312 162.667969 178.359375 166.71875 178.359375 171.6875 C 178.359375 198.378906 187.480469 198.378906 187.480469 198.378906 C 187.480469 198.378906 196.601562 198.378906 196.601562 171.6875 C 196.601562 166.71875 192.515625 162.667969 187.480469 162.667969 Z M 187.480469 162.667969 " fill-opacity="1" fill-rule="nonzero"/></g><g fill="#41275b" fill-opacity="1"><g transform="translate(105.07591, 234.738061)"><g><path d="M 2.359375 0 C 2.023438 0 1.859375 -0.171875 1.859375 -0.515625 L 1.859375 -20.453125 C 1.859375 -20.785156 2.023438 -20.953125 2.359375 -20.953125 L 5.5625 -20.953125 C 5.820312 -20.953125 6.023438 -20.84375 6.171875 -20.625 L 10.515625 -13.625 C 10.546875 -13.5625 10.585938 -13.53125 10.640625 -13.53125 C 10.691406 -13.53125 10.726562 -13.5625 10.75 -13.625 L 15.140625 -20.625 C 15.285156 -20.84375 15.488281 -20.953125 15.75 -20.953125 L 18.953125 -20.953125 C 19.285156 -20.953125 19.453125 -20.785156 19.453125 -20.453125 L 19.453125 -0.515625 C 19.453125 -0.171875 19.285156 0 18.953125 0 L 15.75 0 C 15.40625 0 15.234375 -0.171875 15.234375 -0.515625 L 15.234375 -13.46875 C 15.234375 -13.550781 15.207031 -13.601562 15.15625 -13.625 C 15.113281 -13.644531 15.070312 -13.613281 15.03125 -13.53125 L 12 -8.59375 C 11.863281 -8.375 11.664062 -8.265625 11.40625 -8.265625 L 9.875 -8.265625 C 9.613281 -8.265625 9.414062 -8.375 9.28125 -8.59375 L 6.28125 -13.53125 C 6.25 -13.613281 6.207031 -13.644531 6.15625 -13.625 C 6.101562 -13.601562 6.078125 -13.550781 6.078125 -13.46875 L 6.078125 -0.515625 C 6.078125 -0.171875 5.90625 0 5.5625 0 Z M 2.359375 0 "/></g></g></g><g fill="#41275b" fill-opacity="1"><g transform="translate(126.355923, 234.738061)"><g><path d="M 7.640625 -0.03125 C 7.296875 -0.03125 7.125 -0.195312 7.125 -0.53125 L 7.125 -7.9375 L 7.0625 -8.171875 L 1.015625 -20.359375 C 0.953125 -20.453125 0.921875 -20.539062 0.921875 -20.625 C 0.921875 -20.726562 0.960938 -20.804688 1.046875 -20.859375 C 1.128906 -20.921875 1.238281 -20.953125 1.375 -20.953125 L 4.84375 -20.953125 C 5.125 -20.953125 5.328125 -20.820312 5.453125 -20.5625 L 9.09375 -12.78125 C 9.132812 -12.71875 9.179688 -12.6875 9.234375 -12.6875 C 9.285156 -12.6875 9.320312 -12.71875 9.34375 -12.78125 L 13 -20.5625 C 13.132812 -20.820312 13.332031 -20.953125 13.59375 -20.953125 L 17.09375 -20.953125 C 17.394531 -20.953125 17.546875 -20.832031 17.546875 -20.59375 C 17.546875 -20.5 17.523438 -20.421875 17.484375 -20.359375 L 11.375 -8.171875 L 11.3125 -7.9375 L 11.3125 -0.53125 C 11.3125 -0.195312 11.144531 -0.03125 10.8125 -0.03125 Z M 7.640625 -0.03125 "/></g></g></g><g fill="#41275b" fill-opacity="1"><g transform="translate(144.822543, 234.738061)"><g/></g></g><g fill="#41275b" fill-opacity="1"><g transform="translate(150.808478, 234.738061)"><g><path d="M 15.296875 0 C 15.015625 0 14.828125 -0.140625 14.734375 -0.421875 L 13.890625 -3.203125 C 13.867188 -3.304688 13.8125 -3.359375 13.71875 -3.359375 L 6.375 -3.359375 C 6.28125 -3.359375 6.222656 -3.304688 6.203125 -3.203125 L 5.359375 -0.421875 C 5.253906 -0.140625 5.066406 0 4.796875 0 L 1.3125 0 C 1.132812 0 1.003906 -0.0507812 0.921875 -0.15625 C 0.847656 -0.269531 0.835938 -0.40625 0.890625 -0.5625 L 7.28125 -20.53125 C 7.375 -20.8125 7.5625 -20.953125 7.84375 -20.953125 L 12.25 -20.953125 C 12.519531 -20.953125 12.707031 -20.8125 12.8125 -20.53125 L 19.1875 -0.5625 C 19.207031 -0.53125 19.21875 -0.472656 19.21875 -0.390625 C 19.21875 -0.265625 19.175781 -0.164062 19.09375 -0.09375 C 19.019531 -0.03125 18.910156 0 18.765625 0 Z M 7.25 -6.828125 C 7.226562 -6.679688 7.273438 -6.609375 7.390625 -6.609375 L 12.6875 -6.609375 C 12.8125 -6.609375 12.863281 -6.679688 12.84375 -6.828125 L 10.15625 -15.953125 C 10.132812 -16.035156 10.097656 -16.078125 10.046875 -16.078125 C 9.992188 -16.078125 9.945312 -16.035156 9.90625 -15.953125 Z M 7.25 -6.828125 "/></g></g></g><g fill="#41275b" fill-opacity="1"><g transform="translate(170.891301, 234.738061)"><g><path d="M 14.28125 -10.953125 C 14.21875 -10.929688 14.1875 -10.894531 14.1875 -10.84375 C 14.1875 -10.800781 14.21875 -10.757812 14.28125 -10.71875 C 16.15625 -9.78125 17.09375 -8.164062 17.09375 -5.875 C 17.09375 -3.9375 16.429688 -2.472656 15.109375 -1.484375 C 13.796875 -0.492188 12.070312 0 9.9375 0 L 2.328125 0 C 1.992188 0 1.828125 -0.171875 1.828125 -0.515625 L 1.828125 -20.453125 C 1.828125 -20.785156 1.992188 -20.953125 2.328125 -20.953125 L 9.703125 -20.953125 C 14.429688 -20.953125 16.796875 -19.035156 16.796875 -15.203125 C 16.796875 -13.191406 15.957031 -11.773438 14.28125 -10.953125 Z M 6.234375 -17.328125 C 6.109375 -17.328125 6.046875 -17.269531 6.046875 -17.15625 L 6.046875 -12.546875 C 6.046875 -12.421875 6.109375 -12.359375 6.234375 -12.359375 L 9.703125 -12.359375 C 10.640625 -12.359375 11.363281 -12.578125 11.875 -13.015625 C 12.394531 -13.460938 12.65625 -14.0625 12.65625 -14.8125 C 12.65625 -15.59375 12.394531 -16.207031 11.875 -16.65625 C 11.363281 -17.101562 10.640625 -17.328125 9.703125 -17.328125 Z M 9.9375 -3.65625 C 10.851562 -3.65625 11.570312 -3.890625 12.09375 -4.359375 C 12.613281 -4.828125 12.875 -5.46875 12.875 -6.28125 C 12.875 -7.101562 12.613281 -7.75 12.09375 -8.21875 C 11.570312 -8.6875 10.84375 -8.921875 9.90625 -8.921875 L 6.234375 -8.921875 C 6.109375 -8.921875 6.046875 -8.859375 6.046875 -8.734375 L 6.046875 -3.828125 C 6.046875 -3.710938 6.109375 -3.65625 6.234375 -3.65625 Z M 9.9375 -3.65625 "/></g></g></g><g fill="#41275b" fill-opacity="1"><g transform="translate(189.447712, 234.738061)"><g><path d="M 8.921875 0.234375 C 7.367188 0.234375 6 -0.0195312 4.8125 -0.53125 C 3.632812 -1.050781 2.726562 -1.78125 2.09375 -2.71875 C 1.457031 -3.65625 1.140625 -4.753906 1.140625 -6.015625 L 1.140625 -6.53125 C 1.140625 -6.863281 1.304688 -7.03125 1.640625 -7.03125 L 4.796875 -7.03125 C 5.128906 -7.03125 5.296875 -6.898438 5.296875 -6.640625 L 5.296875 -6.234375 C 5.296875 -5.429688 5.660156 -4.753906 6.390625 -4.203125 C 7.117188 -3.660156 8.070312 -3.390625 9.25 -3.390625 C 10.3125 -3.390625 11.09375 -3.613281 11.59375 -4.0625 C 12.101562 -4.507812 12.359375 -5.0625 12.359375 -5.71875 C 12.359375 -6.195312 12.195312 -6.597656 11.875 -6.921875 C 11.5625 -7.253906 11.132812 -7.546875 10.59375 -7.796875 C 10.0625 -8.046875 9.195312 -8.390625 8 -8.828125 C 6.632812 -9.285156 5.492188 -9.753906 4.578125 -10.234375 C 3.660156 -10.710938 2.878906 -11.363281 2.234375 -12.1875 C 1.597656 -13.019531 1.28125 -14.046875 1.28125 -15.265625 C 1.28125 -16.460938 1.585938 -17.507812 2.203125 -18.40625 C 2.828125 -19.3125 3.691406 -20.003906 4.796875 -20.484375 C 5.910156 -20.960938 7.175781 -21.203125 8.59375 -21.203125 C 10.113281 -21.203125 11.46875 -20.929688 12.65625 -20.390625 C 13.851562 -19.847656 14.785156 -19.09375 15.453125 -18.125 C 16.128906 -17.15625 16.46875 -16.035156 16.46875 -14.765625 L 16.46875 -14.453125 C 16.46875 -14.117188 16.296875 -13.953125 15.953125 -13.953125 L 12.8125 -13.953125 C 12.46875 -13.953125 12.296875 -14.050781 12.296875 -14.25 L 12.296875 -14.546875 C 12.296875 -15.390625 11.953125 -16.101562 11.265625 -16.6875 C 10.578125 -17.28125 9.632812 -17.578125 8.4375 -17.578125 C 7.476562 -17.578125 6.738281 -17.375 6.21875 -16.96875 C 5.707031 -16.570312 5.453125 -16.023438 5.453125 -15.328125 C 5.453125 -14.828125 5.597656 -14.40625 5.890625 -14.0625 C 6.191406 -13.726562 6.644531 -13.421875 7.25 -13.140625 C 7.863281 -12.859375 8.8125 -12.5 10.09375 -12.0625 C 11.488281 -11.539062 12.59375 -11.085938 13.40625 -10.703125 C 14.226562 -10.316406 14.960938 -9.722656 15.609375 -8.921875 C 16.253906 -8.117188 16.578125 -7.09375 16.578125 -5.84375 C 16.578125 -4.625 16.265625 -3.550781 15.640625 -2.625 C 15.015625 -1.707031 14.125 -1 12.96875 -0.5 C 11.820312 -0.0078125 10.472656 0.234375 8.921875 0.234375 Z M 8.921875 0.234375 "/></g></g></g><g fill="#41275b" fill-opacity="1"><g transform="translate(207.166095, 234.738061)"><g><path d="M 16.375 -17.84375 C 16.375 -17.5 16.203125 -17.328125 15.859375 -17.328125 L 6.234375 -17.328125 C 6.109375 -17.328125 6.046875 -17.269531 6.046875 -17.15625 L 6.046875 -12.578125 C 6.046875 -12.453125 6.109375 -12.390625 6.234375 -12.390625 L 12.484375 -12.390625 C 12.828125 -12.390625 13 -12.222656 13 -11.890625 L 13 -9.28125 C 13 -8.9375 12.828125 -8.765625 12.484375 -8.765625 L 6.234375 -8.765625 C 6.109375 -8.765625 6.046875 -8.707031 6.046875 -8.59375 L 6.046875 -3.796875 C 6.046875 -3.679688 6.109375 -3.625 6.234375 -3.625 L 15.859375 -3.625 C 16.203125 -3.625 16.375 -3.453125 16.375 -3.109375 L 16.375 -0.515625 C 16.375 -0.171875 16.203125 0 15.859375 0 L 2.328125 0 C 1.992188 0 1.828125 -0.171875 1.828125 -0.515625 L 1.828125 -20.453125 C 1.828125 -20.785156 1.992188 -20.953125 2.328125 -20.953125 L 15.859375 -20.953125 C 16.203125 -20.953125 16.375 -20.785156 16.375 -20.453125 Z M 16.375 -17.84375 "/></g></g></g><g fill="#41275b" fill-opacity="1"><g transform="translate(224.645032, 234.738061)"><g><path d="M 2.328125 0 C 1.992188 0 1.828125 -0.171875 1.828125 -0.515625 L 1.828125 -20.453125 C 1.828125 -20.785156 1.992188 -20.953125 2.328125 -20.953125 L 5.421875 -20.953125 C 5.679688 -20.953125 5.878906 -20.84375 6.015625 -20.625 L 13.5 -8.171875 C 13.539062 -8.085938 13.585938 -8.054688 13.640625 -8.078125 C 13.691406 -8.097656 13.71875 -8.148438 13.71875 -8.234375 L 13.71875 -20.453125 C 13.71875 -20.785156 13.882812 -20.953125 14.21875 -20.953125 L 17.359375 -20.953125 C 17.703125 -20.953125 17.875 -20.785156 17.875 -20.453125 L 17.875 -0.515625 C 17.875 -0.171875 17.703125 0 17.359375 0 L 14.3125 0 C 14.070312 0 13.875 -0.117188 13.71875 -0.359375 L 6.203125 -12.9375 C 6.160156 -13.007812 6.113281 -13.035156 6.0625 -13.015625 C 6.007812 -13.003906 5.984375 -12.957031 5.984375 -12.875 L 6.015625 -0.515625 C 6.015625 -0.171875 5.847656 0 5.515625 0 Z M 2.328125 0 "/></g></g></g><g fill="#41275b" fill-opacity="1"><g transform="translate(244.338768, 234.738061)"><g><path d="M 8.921875 0.234375 C 7.367188 0.234375 6 -0.0195312 4.8125 -0.53125 C 3.632812 -1.050781 2.726562 -1.78125 2.09375 -2.71875 C 1.457031 -3.65625 1.140625 -4.753906 1.140625 -6.015625 L 1.140625 -6.53125 C 1.140625 -6.863281 1.304688 -7.03125 1.640625 -7.03125 L 4.796875 -7.03125 C 5.128906 -7.03125 5.296875 -6.898438 5.296875 -6.640625 L 5.296875 -6.234375 C 5.296875 -5.429688 5.660156 -4.753906 6.390625 -4.203125 C 7.117188 -3.660156 8.070312 -3.390625 9.25 -3.390625 C 10.3125 -3.390625 11.09375 -3.613281 11.59375 -4.0625 C 12.101562 -4.507812 12.359375 -5.0625 12.359375 -5.71875 C 12.359375 -6.195312 12.195312 -6.597656 11.875 -6.921875 C 11.5625 -7.253906 11.132812 -7.546875 10.59375 -7.796875 C 10.0625 -8.046875 9.195312 -8.390625 8 -8.828125 C 6.632812 -9.285156 5.492188 -9.753906 4.578125 -10.234375 C 3.660156 -10.710938 2.878906 -11.363281 2.234375 -12.1875 C 1.597656 -13.019531 1.28125 -14.046875 1.28125 -15.265625 C 1.28125 -16.460938 1.585938 -17.507812 2.203125 -18.40625 C 2.828125 -19.3125 3.691406 -20.003906 4.796875 -20.484375 C 5.910156 -20.960938 7.175781 -21.203125 8.59375 -21.203125 C 10.113281 -21.203125 11.46875 -20.929688 12.65625 -20.390625 C 13.851562 -19.847656 14.785156 -19.09375 15.453125 -18.125 C 16.128906 -17.15625 16.46875 -16.035156 16.46875 -14.765625 L 16.46875 -14.453125 C 16.46875 -14.117188 16.296875 -13.953125 15.953125 -13.953125 L 12.8125 -13.953125 C 12.46875 -13.953125 12.296875 -14.050781 12.296875 -14.25 L 12.296875 -14.546875 C 12.296875 -15.390625 11.953125 -16.101562 11.265625 -16.6875 C 10.578125 -17.28125 9.632812 -17.578125 8.4375 -17.578125 C 7.476562 -17.578125 6.738281 -17.375 6.21875 -16.96875 C 5.707031 -16.570312 5.453125 -16.023438 5.453125 -15.328125 C 5.453125 -14.828125 5.597656 -14.40625 5.890625 -14.0625 C 6.191406 -13.726562 6.644531 -13.421875 7.25 -13.140625 C 7.863281 -12.859375 8.8125 -12.5 10.09375 -12.0625 C 11.488281 -11.539062 12.59375 -11.085938 13.40625 -10.703125 C 14.226562 -10.316406 14.960938 -9.722656 15.609375 -8.921875 C 16.253906 -8.117188 16.578125 -7.09375 16.578125 -5.84375 C 16.578125 -4.625 16.265625 -3.550781 15.640625 -2.625 C 15.015625 -1.707031 14.125 -1 12.96875 -0.5 C 11.820312 -0.0078125 10.472656 0.234375 8.921875 0.234375 Z M 8.921875 0.234375 "/></g></g></g><g fill="#41275b" fill-opacity="1"><g transform="translate(262.057151, 234.738061)"><g><path d="M 2.328125 0 C 1.992188 0 1.828125 -0.171875 1.828125 -0.515625 L 1.828125 -20.453125 C 1.828125 -20.785156 1.992188 -20.953125 2.328125 -20.953125 L 5.53125 -20.953125 C 5.875 -20.953125 6.046875 -20.785156 6.046875 -20.453125 L 6.046875 -0.515625 C 6.046875 -0.171875 5.875 0 5.53125 0 Z M 2.328125 0 "/></g></g></g><g fill="#41275b" fill-opacity="1"><g transform="translate(74.365436, 256.408812)"><g><path d="M 5.15625 -1.640625 L 1.671875 -1.640625 L 0.953125 0 L -0.015625 0 L 2.953125 -6.546875 L 3.890625 -6.546875 L 6.859375 0 L 5.875 0 Z M 4.828125 -2.390625 L 3.421875 -5.59375 L 2 -2.390625 Z M 4.828125 -2.390625 "/></g></g></g><g fill="#41275b" fill-opacity="1"><g transform="translate(88.69611, 256.408812)"><g><path d="M 5.390625 -3.390625 C 5.773438 -3.285156 6.070312 -3.09375 6.28125 -2.8125 C 6.5 -2.539062 6.609375 -2.191406 6.609375 -1.765625 C 6.609375 -1.203125 6.394531 -0.765625 5.96875 -0.453125 C 5.539062 -0.148438 4.921875 0 4.109375 0 L 0.984375 0 L 0.984375 -6.546875 L 3.921875 -6.546875 C 4.671875 -6.546875 5.25 -6.394531 5.65625 -6.09375 C 6.0625 -5.800781 6.265625 -5.390625 6.265625 -4.859375 C 6.265625 -4.515625 6.1875 -4.21875 6.03125 -3.96875 C 5.875 -3.71875 5.660156 -3.523438 5.390625 -3.390625 Z M 1.921875 -5.796875 L 1.921875 -3.703125 L 3.84375 -3.703125 C 4.320312 -3.703125 4.6875 -3.789062 4.9375 -3.96875 C 5.195312 -4.144531 5.328125 -4.40625 5.328125 -4.75 C 5.328125 -5.09375 5.195312 -5.351562 4.9375 -5.53125 C 4.6875 -5.707031 4.320312 -5.796875 3.84375 -5.796875 Z M 4.078125 -0.765625 C 4.597656 -0.765625 4.992188 -0.847656 5.265625 -1.015625 C 5.535156 -1.191406 5.671875 -1.46875 5.671875 -1.84375 C 5.671875 -2.570312 5.140625 -2.9375 4.078125 -2.9375 L 1.921875 -2.9375 L 1.921875 -0.765625 Z M 4.078125 -0.765625 "/></g></g></g><g fill="#41275b" fill-opacity="1"><g transform="translate(103.260576, 256.408812)"><g><path d="M 2.890625 0.078125 C 2.398438 0.078125 1.925781 0 1.46875 -0.15625 C 1.007812 -0.3125 0.648438 -0.507812 0.390625 -0.75 L 0.734375 -1.484375 C 0.984375 -1.253906 1.300781 -1.066406 1.6875 -0.921875 C 2.082031 -0.785156 2.484375 -0.71875 2.890625 -0.71875 C 3.429688 -0.71875 3.835938 -0.804688 4.109375 -0.984375 C 4.378906 -1.171875 4.515625 -1.421875 4.515625 -1.734375 C 4.515625 -1.953125 4.441406 -2.128906 4.296875 -2.265625 C 4.148438 -2.410156 3.96875 -2.519531 3.75 -2.59375 C 3.53125 -2.675781 3.222656 -2.765625 2.828125 -2.859375 C 2.335938 -2.972656 1.941406 -3.085938 1.640625 -3.203125 C 1.335938 -3.328125 1.078125 -3.507812 0.859375 -3.75 C 0.648438 -4 0.546875 -4.332031 0.546875 -4.75 C 0.546875 -5.101562 0.632812 -5.421875 0.8125 -5.703125 C 1 -5.984375 1.28125 -6.207031 1.65625 -6.375 C 2.03125 -6.539062 2.492188 -6.625 3.046875 -6.625 C 3.429688 -6.625 3.8125 -6.570312 4.1875 -6.46875 C 4.5625 -6.375 4.882812 -6.234375 5.15625 -6.046875 L 4.84375 -5.296875 C 4.570312 -5.472656 4.28125 -5.601562 3.96875 -5.6875 C 3.65625 -5.78125 3.347656 -5.828125 3.046875 -5.828125 C 2.515625 -5.828125 2.113281 -5.726562 1.84375 -5.53125 C 1.582031 -5.34375 1.453125 -5.097656 1.453125 -4.796875 C 1.453125 -4.566406 1.523438 -4.378906 1.671875 -4.234375 C 1.828125 -4.097656 2.015625 -3.988281 2.234375 -3.90625 C 2.460938 -3.832031 2.765625 -3.753906 3.140625 -3.671875 C 3.640625 -3.546875 4.035156 -3.425781 4.328125 -3.3125 C 4.628906 -3.195312 4.882812 -3.015625 5.09375 -2.765625 C 5.3125 -2.523438 5.421875 -2.195312 5.421875 -1.78125 C 5.421875 -1.4375 5.328125 -1.125 5.140625 -0.84375 C 4.953125 -0.5625 4.664062 -0.335938 4.28125 -0.171875 C 3.90625 -0.00390625 3.441406 0.078125 2.890625 0.078125 Z M 2.890625 0.078125 "/></g></g></g><g fill="#41275b" fill-opacity="1"><g transform="translate(116.553226, 256.408812)"><g><path d="M 5.734375 -0.8125 L 5.734375 0 L 0.984375 0 L 0.984375 -6.546875 L 5.609375 -6.546875 L 5.609375 -5.734375 L 1.921875 -5.734375 L 1.921875 -3.71875 L 5.203125 -3.71875 L 5.203125 -2.921875 L 1.921875 -2.921875 L 1.921875 -0.8125 Z M 5.734375 -0.8125 "/></g></g></g><g fill="#41275b" fill-opacity="1"><g transform="translate(130.304108, 256.408812)"><g><path d="M 6.609375 -6.546875 L 6.609375 0 L 5.84375 0 L 1.921875 -4.890625 L 1.921875 0 L 0.984375 0 L 0.984375 -6.546875 L 1.75 -6.546875 L 5.6875 -1.671875 L 5.6875 -6.546875 Z M 6.609375 -6.546875 "/></g></g></g><g fill="#41275b" fill-opacity="1"><g transform="translate(145.382917, 256.408812)"><g/></g></g><g fill="#41275b" fill-opacity="1"><g transform="translate(155.383799, 256.408812)"><g><path d="M 0.984375 -6.546875 L 1.921875 -6.546875 L 1.921875 -0.8125 L 5.46875 -0.8125 L 5.46875 0 L 0.984375 0 Z M 0.984375 -6.546875 "/></g></g></g><g fill="#41275b" fill-opacity="1"><g transform="translate(168.423958, 256.408812)"><g><path d="M 5.734375 -0.8125 L 5.734375 0 L 0.984375 0 L 0.984375 -6.546875 L 5.609375 -6.546875 L 5.609375 -5.734375 L 1.921875 -5.734375 L 1.921875 -3.71875 L 5.203125 -3.71875 L 5.203125 -2.921875 L 1.921875 -2.921875 L 1.921875 -0.8125 Z M 5.734375 -0.8125 "/></g></g></g><g fill="#41275b" fill-opacity="1"><g transform="translate(182.17484, 256.408812)"><g><path d="M 5.390625 -3.390625 C 5.773438 -3.285156 6.070312 -3.09375 6.28125 -2.8125 C 6.5 -2.539062 6.609375 -2.191406 6.609375 -1.765625 C 6.609375 -1.203125 6.394531 -0.765625 5.96875 -0.453125 C 5.539062 -0.148438 4.921875 0 4.109375 0 L 0.984375 0 L 0.984375 -6.546875 L 3.921875 -6.546875 C 4.671875 -6.546875 5.25 -6.394531 5.65625 -6.09375 C 6.0625 -5.800781 6.265625 -5.390625 6.265625 -4.859375 C 6.265625 -4.515625 6.1875 -4.21875 6.03125 -3.96875 C 5.875 -3.71875 5.660156 -3.523438 5.390625 -3.390625 Z M 1.921875 -5.796875 L 1.921875 -3.703125 L 3.84375 -3.703125 C 4.320312 -3.703125 4.6875 -3.789062 4.9375 -3.96875 C 5.195312 -4.144531 5.328125 -4.40625 5.328125 -4.75 C 5.328125 -5.09375 5.195312 -5.351562 4.9375 -5.53125 C 4.6875 -5.707031 4.320312 -5.796875 3.84375 -5.796875 Z M 4.078125 -0.765625 C 4.597656 -0.765625 4.992188 -0.847656 5.265625 -1.015625 C 5.535156 -1.191406 5.671875 -1.46875 5.671875 -1.84375 C 5.671875 -2.570312 5.140625 -2.9375 4.078125 -2.9375 L 1.921875 -2.9375 L 1.921875 -0.765625 Z M 4.078125 -0.765625 "/></g></g></g><g fill="#41275b" fill-opacity="1"><g transform="translate(196.7393, 256.408812)"><g><path d="M 0.984375 -6.546875 L 1.921875 -6.546875 L 1.921875 0 L 0.984375 0 Z M 0.984375 -6.546875 "/></g></g></g><g fill="#41275b" fill-opacity="1"><g transform="translate(207.123599, 256.408812)"><g><path d="M 6.609375 -6.546875 L 6.609375 0 L 5.6875 0 L 5.6875 -2.921875 L 1.921875 -2.921875 L 1.921875 0 L 0.984375 0 L 0.984375 -6.546875 L 1.921875 -6.546875 L 1.921875 -3.734375 L 5.6875 -3.734375 L 5.6875 -6.546875 Z M 6.609375 -6.546875 "/></g></g></g><g fill="#41275b" fill-opacity="1"><g transform="translate(222.202402, 256.408812)"><g/></g></g><g fill="#41275b" fill-opacity="1"><g transform="translate(232.203279, 256.408812)"><g><path d="M 7.0625 0 L 7.046875 -4.765625 L 4.671875 -0.796875 L 4.25 -0.796875 L 1.875 -4.75 L 1.875 0 L 0.984375 0 L 0.984375 -6.546875 L 1.75 -6.546875 L 4.484375 -1.953125 L 7.171875 -6.546875 L 7.953125 -6.546875 L 7.953125 0 Z M 7.0625 0 "/></g></g></g><g fill="#41275b" fill-opacity="1"><g transform="translate(248.61937, 256.408812)"><g><path d="M 3.703125 0.078125 C 2.828125 0.078125 2.144531 -0.171875 1.65625 -0.671875 C 1.164062 -1.171875 0.921875 -1.890625 0.921875 -2.828125 L 0.921875 -6.546875 L 1.859375 -6.546875 L 1.859375 -2.859375 C 1.859375 -1.460938 2.472656 -0.765625 3.703125 -0.765625 C 4.304688 -0.765625 4.765625 -0.9375 5.078125 -1.28125 C 5.398438 -1.625 5.5625 -2.148438 5.5625 -2.859375 L 5.5625 -6.546875 L 6.46875 -6.546875 L 6.46875 -2.828125 C 6.46875 -1.878906 6.222656 -1.15625 5.734375 -0.65625 C 5.242188 -0.164062 4.566406 0.078125 3.703125 0.078125 Z M 3.703125 0.078125 "/></g></g></g><g fill="#41275b" fill-opacity="1"><g transform="translate(263.501793, 256.408812)"><g><path d="M 0.984375 -6.546875 L 3.75 -6.546875 C 4.4375 -6.546875 5.046875 -6.410156 5.578125 -6.140625 C 6.117188 -5.867188 6.535156 -5.484375 6.828125 -4.984375 C 7.128906 -4.484375 7.28125 -3.914062 7.28125 -3.28125 C 7.28125 -2.632812 7.128906 -2.0625 6.828125 -1.5625 C 6.535156 -1.070312 6.117188 -0.6875 5.578125 -0.40625 C 5.046875 -0.132812 4.4375 0 3.75 0 L 0.984375 0 Z M 3.6875 -0.8125 C 4.21875 -0.8125 4.679688 -0.914062 5.078125 -1.125 C 5.484375 -1.332031 5.796875 -1.617188 6.015625 -1.984375 C 6.234375 -2.359375 6.34375 -2.789062 6.34375 -3.28125 C 6.34375 -3.757812 6.234375 -4.1875 6.015625 -4.5625 C 5.796875 -4.9375 5.484375 -5.222656 5.078125 -5.421875 C 4.679688 -5.628906 4.21875 -5.734375 3.6875 -5.734375 L 1.921875 -5.734375 L 1.921875 -0.8125 Z M 3.6875 -0.8125 "/></g></g></g><g fill="#41275b" fill-opacity="1"><g transform="translate(278.711516, 256.408812)"><g><path d="M 5.15625 -1.640625 L 1.671875 -1.640625 L 0.953125 0 L -0.015625 0 L 2.953125 -6.546875 L 3.890625 -6.546875 L 6.859375 0 L 5.875 0 Z M 4.828125 -2.390625 L 3.421875 -5.59375 L 2 -2.390625 Z M 4.828125 -2.390625 "/></g></g></g><g fill="#41275b" fill-opacity="1"><g transform="translate(293.042196, 256.408812)"><g><path d="M 6.609375 -6.546875 L 6.609375 0 L 5.6875 0 L 5.6875 -2.921875 L 1.921875 -2.921875 L 1.921875 0 L 0.984375 0 L 0.984375 -6.546875 L 1.921875 -6.546875 L 1.921875 -3.734375 L 5.6875 -3.734375 L 5.6875 -6.546875 Z M 6.609375 -6.546875 "/></g></g></g></svg>