<svg width="3000" height="1600" viewBox="0 0 3000 1600" fill="none" xmlns="http://www.w3.org/2000/svg">
<rect width="3000" height="1600" fill="white"/>
<path d="M2551 1300H528.5C235 1174.5 440.5 818 609 899C777.5 980 1101 581.5 1146.5 483.5C1192 385.5 1358.5 205 1554 327C1749.5 449 1662 710.5 1857.5 829.5C2053 948.5 2144 829.5 2381 829.5C2618 829.5 2827.5 1048 2551 1300Z" fill="#E8F0F9"/>
<rect x="2395" y="562" width="104" height="40" rx="8" fill="#A3BCD9"/>
<mask id="path-3-inside-1_119_149" fill="white">
<rect x="2044" y="350" width="500" height="306" rx="8"/>
</mask>
<rect x="2044" y="350" width="500" height="306" rx="8" stroke="#A3BCD9" stroke-width="20" mask="url(#path-3-inside-1_119_149)"/>
<rect x="2099" y="390" width="190" height="200" rx="8" fill="#A3BCD9"/>
<rect width="183" height="32" rx="8" transform="matrix(1 0 0 -1 2316 422)" fill="#A3BCD9"/>
<rect width="183" height="32" rx="8" transform="matrix(1 0 0 -1 2316 466)" fill="#A3BCD9"/>
<rect width="183" height="32" rx="8" transform="matrix(1 0 0 -1 2316 510)" fill="#A3BCD9"/>
<rect x="635" y="557.261" width="68.3006" height="55.5652" rx="4" stroke="#A3BCD9" stroke-width="8"/>
<path d="M639 557.261L699.301 557.261C701.51 557.261 703.301 559.052 703.301 561.261L703.301 569.214C703.301 570.728 702.446 572.112 701.093 572.79L671.183 587.784C670.062 588.346 668.742 588.35 667.618 587.794L637.227 572.769C635.863 572.095 635 570.705 635 569.184L635 561.261C635 559.052 636.791 557.261 639 557.261Z" stroke="#A3BCD9" stroke-width="8"/>
<rect x="720.549" y="475" width="68.3006" height="55.5652" rx="4" stroke="#A3BCD9" stroke-width="8"/>
<path d="M724.549 475L784.85 475C787.059 475 788.85 476.791 788.85 479L788.85 486.953C788.85 488.467 787.996 489.851 786.643 490.529L756.732 505.523C755.611 506.085 754.291 506.089 753.167 505.533L722.777 490.508C721.413 489.834 720.549 488.444 720.549 486.923L720.549 479C720.549 476.791 722.34 475 724.549 475Z" stroke="#A3BCD9" stroke-width="8"/>
<rect x="758.699" y="583.435" width="68.3006" height="55.5652" rx="4" stroke="#A3BCD9" stroke-width="8"/>
<path d="M762.699 583.435L823 583.435C825.209 583.435 827 585.226 827 587.435L827 595.388C827 596.902 826.145 598.286 824.792 598.964L794.882 613.958C793.761 614.52 792.441 614.524 791.317 613.968L760.926 598.943C759.562 598.269 758.699 596.879 758.699 595.357L758.699 587.435C758.699 585.226 760.49 583.435 762.699 583.435Z" stroke="#A3BCD9" stroke-width="8"/>
<path d="M1779.94 1299.04L1771.35 1308.28C1765.91 1300.35 1759.55 1283.82 1749.06 1277.5C1738.56 1271.18 1715.63 1264.6 1709.05 1262.54C1716.61 1261.92 1736.03 1262.52 1753.17 1269.85C1770.32 1277.18 1778.16 1292.37 1779.94 1299.04Z" fill="#5D8C96"/>
<path d="M1775.56 1303.75L1771 1308.66C1765.16 1301.16 1755.69 1287.98 1745.66 1281.15C1735.63 1274.33 1715.07 1265.19 1709.05 1262.54C1715.57 1263.05 1732.24 1266.59 1748.21 1275.19C1764.18 1283.78 1773.1 1297.81 1775.56 1303.75Z" fill="#78B1B0"/>
<path d="M1785.89 1307.11L1773.33 1308.24C1774.27 1295.27 1780.06 1272.9 1776.08 1256.79C1772.09 1240.68 1758.73 1212.67 1755 1204.47C1761.21 1210.94 1775.74 1229.71 1784.18 1253.05C1792.62 1276.38 1788.84 1298.81 1785.89 1307.11Z" fill="#5D8C96"/>
<path d="M1779.49 1307.69L1772.81 1308.29C1773.18 1295.37 1774.41 1273.41 1771.11 1257.24C1767.81 1241.07 1757.92 1212.74 1755 1204.47C1759.68 1211.08 1770.2 1230.21 1776.92 1253.7C1783.63 1277.19 1781.43 1299.48 1779.49 1307.69Z" fill="#78B1B0"/>
<path d="M1786.14 1304.06L1794.92 1307.51C1796.45 1299.3 1796.13 1284.24 1801.72 1275.17C1807.31 1266.11 1821.61 1251.76 1825.67 1247.52C1820.13 1250.15 1806.57 1258.55 1796.57 1271.09C1786.58 1283.64 1785.46 1298.3 1786.14 1304.06Z" fill="#78B1B0"/>
<path d="M1790.62 1305.82L1795.28 1307.65C1797.22 1299.61 1800.08 1285.79 1805.19 1276.54C1810.3 1267.29 1822.18 1251.98 1825.67 1247.52C1821.2 1250.57 1810.44 1260.07 1801.64 1273.09C1792.85 1286.1 1790.63 1300.33 1790.62 1305.82Z" fill="#5D8C96"/>
<path d="M1154.7 1295.52L1163.29 1304.76C1168.73 1296.83 1175.09 1280.3 1185.58 1273.98C1196.08 1267.66 1219.01 1261.07 1225.59 1259.02C1218.02 1258.4 1198.61 1259 1181.47 1266.33C1164.32 1273.66 1156.48 1288.84 1154.7 1295.52Z" fill="#5D8C96"/>
<path d="M1159.07 1300.23L1163.64 1305.14C1169.48 1297.63 1178.95 1284.45 1188.98 1277.63C1199.01 1270.81 1219.57 1261.67 1225.59 1259.02C1219.07 1259.53 1202.4 1263.07 1186.43 1271.67C1170.46 1280.26 1161.54 1294.29 1159.07 1300.23Z" fill="#78B1B0"/>
<path d="M1148.74 1303.59L1161.3 1304.72C1160.36 1291.75 1154.58 1269.37 1158.56 1253.27C1162.55 1237.16 1175.91 1209.15 1179.64 1200.95C1173.43 1207.42 1158.9 1226.19 1150.46 1249.52C1142.02 1272.86 1145.8 1295.29 1148.74 1303.59Z" fill="#5D8C96"/>
<path d="M1155.15 1304.17L1161.83 1304.77C1161.46 1291.85 1160.23 1269.89 1163.53 1253.72C1166.83 1237.55 1176.72 1209.22 1179.64 1200.95C1174.96 1207.56 1164.44 1226.69 1157.72 1250.18C1151 1273.67 1153.21 1295.96 1155.15 1304.17Z" fill="#78B1B0"/>
<path d="M1150.9 1304.54L1139.57 1308.99C1138.46 1300.62 1140.36 1284.93 1134.26 1276.07C1128.16 1267.21 1111.66 1253.72 1107 1249.72C1113.67 1251.9 1129.84 1259.27 1141.12 1271.32C1152.4 1283.36 1152.34 1298.48 1150.9 1304.54Z" fill="#78B1B0"/>
<path d="M1145.13 1306.81L1139.1 1309.18C1137.47 1301.01 1135.26 1286.94 1129.78 1277.83C1124.3 1268.73 1110.93 1254.01 1107 1249.72C1112.29 1252.44 1124.84 1261.24 1134.56 1273.89C1144.29 1286.54 1145.66 1301.11 1145.13 1306.81Z" fill="#5D8C96"/>
<path d="M1151.21 1299.91L1144.99 1300.71C1144.98 1292.45 1147.03 1278.16 1144.45 1267.93C1141.86 1257.7 1134.16 1239.95 1132 1234.75C1135.34 1238.83 1143.28 1250.69 1148.35 1265.49C1153.42 1280.3 1152.37 1294.61 1151.21 1299.91Z" fill="#78B1B0"/>
<path d="M1148.04 1300.32L1144.73 1300.75C1144.43 1292.52 1144.23 1278.52 1141.99 1268.25C1139.74 1257.97 1133.76 1240 1132 1234.75C1134.58 1238.93 1140.53 1251.04 1144.75 1265.96C1148.97 1280.87 1148.7 1295.08 1148.04 1300.32Z" fill="#5D8C96"/>
<path d="M768.931 953.736L728.175 947.658L669.579 939.645L607.304 922.736L569.823 962.567C565.475 943.262 619.047 884.65 637.831 874.818C656.614 864.985 673.347 865.464 700.06 886.547C726.774 907.631 779.165 951.207 768.931 953.736Z" fill="#4F526D"/>
<path d="M584.586 910.438C563.68 927.716 567.356 993.137 567.356 993.137C567.356 993.137 574.9 975.123 602.836 958.991C630.771 942.859 718.893 946.357 718.893 946.357C718.893 946.357 682.942 933.358 658.5 919.5C657.443 918.9 649.948 928 649.948 928C649.948 928 650.773 916.15 649.948 915.625C626.434 900.673 605.492 893.16 584.586 910.438Z" fill="#A3BCD9"/>
<path d="M672.422 941.794C672.422 941.794 628.089 942.164 603.592 953.511C579.094 964.858 571.295 976.488 562.957 992.391C554.62 1008.29 526.923 1077.43 525.161 1136.12C523.341 1196.74 536.541 1300.67 536.541 1300.67L544.471 1300.61C544.471 1300.61 527.586 1182.68 531.837 1122.93C536.038 1063.89 567.096 996.559 567.096 996.559C567.096 996.559 574.9 975.123 602.836 958.991C630.771 942.859 718.893 946.357 718.893 946.357L672.422 941.794Z" fill="#4F526D"/>
<path d="M521.081 1299.34L513.425 1309.36C507.245 1301.99 499.32 1286.15 488.261 1280.88C477.202 1275.6 453.746 1271.26 447 1269.85C454.469 1268.51 473.851 1267.22 491.622 1272.87C509.393 1278.51 518.666 1292.87 521.081 1299.34Z" fill="#5D8C96"/>
<path d="M517.179 1304.45L513.106 1309.78C506.577 1302.87 495.873 1290.67 485.233 1284.84C474.593 1279.02 453.251 1271.91 447 1269.85C453.537 1269.73 470.473 1271.64 487.195 1278.66C503.918 1285.68 514.152 1298.77 517.179 1304.45Z" fill="#78B1B0"/>
<path d="M531.036 1305.95L519.007 1309.74C517.163 1296.86 518.055 1273.77 510.731 1258.88C503.407 1243.99 484.389 1219.46 479 1212.25C486.446 1217.24 504.64 1232.49 517.851 1253.49C531.063 1274.5 532.146 1297.22 531.036 1305.95Z" fill="#5D8C96"/>
<path d="M524.905 1307.88L518.505 1309.89C516.113 1297.19 512.637 1275.47 505.973 1260.37C499.308 1245.28 483.611 1219.71 479 1212.25C484.981 1217.7 499.332 1234.16 510.896 1255.68C522.46 1277.2 525.054 1299.45 524.905 1307.88Z" fill="#78B1B0"/>
<path d="M514.932 1206.52C537.824 1236.91 540.821 1284.04 539.459 1303.8L526.042 1305.31C525.025 1296.26 532.686 1279.32 525.033 1243.48C517.38 1207.64 481.944 1173.25 470.986 1165.59C476.097 1166.57 492.041 1176.12 514.932 1206.52Z" fill="#78B1B0"/>
<path d="M519.878 1205.96C545.217 1236.08 547.925 1283.24 546.111 1303.05L530.987 1304.75C529.97 1295.71 538.834 1278.63 530.726 1242.84C522.617 1207.05 483.213 1173.11 470.987 1165.59C476.726 1166.49 494.539 1175.84 519.878 1205.96Z" fill="#5D8C96"/>
<path d="M574.374 1147.4C549.045 1198.19 548.339 1272.97 551.153 1304.01L567.168 1304.74C567.827 1290.34 557.709 1264.52 564.623 1207C571.537 1149.47 611.515 1090.82 624.056 1077.37C618.05 1079.54 599.704 1096.6 574.374 1147.4Z" fill="#5D8C96"/>
<path d="M568.472 1147.13C540.221 1197.79 539.861 1272.58 543.212 1303.64L561.265 1304.47C561.925 1290.07 550.371 1264.19 557.829 1206.69C565.287 1149.19 610 1090.75 624.056 1077.37C617.3 1079.51 596.724 1096.46 568.472 1147.13Z" fill="#78B1B0"/>
<path d="M332.677 982.701C323.146 992.176 333.736 1003.55 346.444 1003.55L363.388 997.229L412.631 982.701C390.392 974.489 342.208 973.225 332.677 982.701Z" fill="#4F526D"/>
<path d="M447.578 1003.55C501.311 1016.06 546.064 1081.87 546.064 1081.87C546.064 1081.87 539.71 965.645 489.408 939.115C439.106 912.585 417.573 931.324 399.394 939.115L411.572 972.594L387.744 950.486C387.744 950.486 382.845 975.37 375.566 985.227C368.591 994.673 353.602 1001.02 348.621 1002.94C347.981 1003.13 347.43 1003.34 346.973 1003.55C346.973 1003.55 347.578 1003.34 348.621 1002.94C362.838 998.573 420.732 997.292 447.578 1003.55Z" fill="#A3BCD9"/>
<path d="M358.47 1001.23C378.763 999.132 417.405 1000.46 439.67 1005.65C490 1017.37 528.671 1068.01 535.025 1077.48C541.379 1086.96 549.947 1143.92 555.21 1184.8L564.258 1300.61H572.539C572.539 1300.61 566.608 1220.7 561.949 1181.05C557.184 1140.5 546.064 1081.87 546.064 1081.87C546.064 1081.87 522.766 1038.29 483.054 1014.92C443.342 991.544 409.454 996.597 394.098 996.597C384.69 996.597 369.119 999.206 358.47 1001.23C353.194 1001.77 349.158 1002.55 346.973 1003.55C346.973 1003.55 351.738 1002.5 358.47 1001.23Z" fill="#4F526D"/>
<path d="M564.273 1303.33L579.665 1309.41C579.969 1301.13 575.343 1285.05 582.089 1276.98C588.834 1268.91 608.509 1257.63 614.044 1254.25C605.638 1255.52 585.56 1260.68 572.498 1271.23C559.435 1281.78 561.572 1297.03 564.273 1303.33Z" fill="#78B1B0"/>
<path d="M572.118 1306.43L580.307 1309.66C581.313 1301.66 582.275 1287.79 588.177 1279.39C594.079 1270.98 609.505 1258.03 614.044 1254.25C607.512 1256.26 592.351 1263.36 581.397 1274.75C570.444 1286.13 570.647 1300.61 572.118 1306.43Z" fill="#5D8C96"/>
<path d="M386.153 753.953C402.568 748.9 411.039 750.795 415.805 750.795H448.634L475 806.5L478.815 866.39C472.108 848.283 452.916 808.896 425.336 788.064C404.481 772.311 378.211 802.592 355.442 774.799C351.355 769.809 371.993 758.313 386.153 753.953Z" fill="#4F526D"/>
<path d="M481.463 878.392C489.087 904.165 534.589 930.4 555.062 939.665C552.592 919.662 553.792 873.592 542.355 831.649C528.058 779.22 498.406 762.797 472.991 750.795C452.658 741.193 412.628 750.795 412.628 750.795C412.628 750.795 426.395 750.795 444.927 769.113C464.856 788.812 471.932 846.177 481.463 878.392Z" fill="#A3BCD9"/>
<path d="M453.399 747.005C479.874 749.321 535.683 733.866 566.182 774.798C567.977 777.207 558 797 558 797C558 797 575.607 787.248 576.5 789.5C594.019 833.684 569.762 905.724 555.063 939.665C552.239 921.767 542.236 840.761 519.586 795.012C498.782 752.99 466.283 753.743 453.399 747.005Z" fill="#A3BCD9"/>
<path d="M531.235 808.909C513.791 760.011 480.373 749.062 453.898 746.746C466.783 753.484 499.281 752.731 520.085 794.753C542.735 840.503 549.061 920.504 551.885 938.402C551.885 937.776 579.948 1300.61 579.948 1300.61H588.42L557.18 939.665C549.238 880.288 548.678 857.806 531.235 808.909Z" fill="#4F526D"/>
<path d="M2517.49 1295.71L2506.6 1302.06C2501.95 1289.92 2497.71 1267.2 2487.27 1254.3C2476.83 1241.4 2452.85 1221.69 2446 1215.85C2454.37 1219.07 2475.49 1229.91 2493.02 1247.47C2510.55 1265.03 2516.64 1286.95 2517.49 1295.71Z" fill="#5D8C96"/>
<path d="M2511.94 1298.95L2506.15 1302.33C2501 1290.47 2492.8 1270.06 2482.96 1256.81C2473.12 1243.56 2452.15 1222.1 2446 1215.85C2453.04 1219.85 2470.68 1232.72 2486.72 1251.14C2502.76 1269.57 2510.22 1290.69 2511.94 1298.95Z" fill="#78B1B0"/>
<path d="M2551.17 1300.44L2561.6 1307.53C2565.14 1298.59 2567.66 1281.06 2576.5 1272.56C2585.33 1264.07 2606.21 1252.55 2612.17 1249.09C2604.66 1250.17 2585.86 1255.06 2570.78 1266.02C2555.7 1276.98 2551.42 1293.53 2551.17 1300.44Z" fill="#78B1B0"/>
<path d="M2556.49 1304.05L2562.03 1307.83C2566.05 1299.21 2572.36 1284.25 2580.62 1275.37C2588.88 1266.49 2606.89 1253.01 2612.17 1249.09C2605.93 1251.03 2590.46 1258.19 2576.81 1270.12C2563.15 1282.06 2557.57 1297.71 2556.49 1304.05Z" fill="#5D8C96"/>
<path d="M2542.77 1301.21L2554.99 1304.33C2557.13 1287.44 2556.69 1257.75 2564.47 1237.46C2572.26 1217.16 2592.19 1182.71 2597.84 1172.61C2590.13 1180.15 2571.23 1202.5 2557.3 1231.55C2543.38 1260.6 2541.81 1290.1 2542.77 1301.21Z" fill="#78B1B0"/>
<path d="M2549 1302.8L2555.5 1304.46C2558.2 1287.71 2562.19 1259.16 2569.31 1238.69C2576.42 1218.23 2592.98 1182.92 2597.84 1172.61C2591.62 1180.53 2576.62 1203.87 2564.37 1233.35C2552.12 1262.84 2549.02 1291.94 2549 1302.8Z" fill="#5D8C96"/>
<path d="M2387.66 1026.36L2352.81 1031.07C2344.06 1029.11 2386.16 996.347 2409 980C2409.96 979.313 2421 987.5 2421 987.5C2421 987.5 2416.59 975.633 2417.59 975C2437.1 962.627 2450.28 962.934 2464.92 969.882C2480.98 977.506 2526.79 1022.95 2523.07 1037.92L2491.02 1007.04L2437.77 1020.15L2387.66 1026.36Z" fill="#4F526D"/>
<path d="M2510.45 997.502C2528.32 1010.9 2525.18 1061.62 2525.18 1061.62C2525.18 1061.62 2518.73 1047.66 2494.84 1035.15C2470.95 1022.64 2395.6 1025.35 2395.6 1025.35C2395.6 1025.35 2434.45 1013.12 2454.56 1001.52C2474.66 989.93 2492.57 984.104 2510.45 997.502Z" fill="#A3BCD9"/>
<path d="M2435.34 1021.81C2435.34 1021.81 2473.25 1022.1 2494.2 1030.9C2515.14 1039.7 2521.81 1048.72 2528.94 1061.05C2536.07 1073.38 2559.76 1126.98 2561.26 1172.49C2562.82 1219.49 2551.53 1300.08 2551.53 1300.08L2544.75 1300.03C2544.75 1300.03 2559.19 1208.59 2555.55 1162.27C2551.96 1116.48 2525.4 1064.28 2525.4 1064.28C2525.4 1064.28 2518.73 1047.66 2494.84 1035.15C2470.95 1022.64 2395.6 1025.35 2395.6 1025.35L2435.34 1021.81Z" fill="#4F526D"/>
<path d="M2725.86 1053.53C2734.01 1060.88 2724.95 1069.7 2714.09 1069.7L2699.6 1064.8L2657.49 1053.53C2676.51 1047.17 2717.71 1046.19 2725.86 1053.53Z" fill="#4F526D"/>
<path d="M2627.61 1069.7C2581.66 1079.4 2543.39 1130.43 2543.39 1130.43C2543.39 1130.43 2548.82 1040.31 2591.84 1019.74C2634.85 999.166 2653.26 1013.7 2668.81 1019.74L2658.4 1045.7L2678.77 1028.55C2678.77 1028.55 2682.96 1047.85 2689.18 1055.49C2695.15 1062.82 2707.97 1067.74 2712.22 1069.22C2712.77 1069.38 2713.24 1069.53 2713.63 1069.7C2713.63 1069.7 2713.12 1069.54 2712.22 1069.22C2700.07 1065.84 2650.56 1064.85 2627.61 1069.7Z" fill="#A3BCD9"/>
<path d="M2703.8 1067.9C2686.45 1066.27 2653.41 1067.3 2634.37 1071.32C2591.33 1080.42 2558.26 1119.68 2552.83 1127.02C2547.4 1134.37 2540.07 1178.54 2535.57 1210.24L2527.83 1300.03H2520.75C2520.75 1300.03 2525.82 1238.07 2529.81 1207.32C2533.88 1175.89 2543.39 1130.43 2543.39 1130.43C2543.39 1130.43 2563.31 1096.63 2597.27 1078.51C2631.23 1060.39 2660.21 1064.31 2673.34 1064.31C2681.38 1064.31 2694.7 1066.33 2703.8 1067.9C2708.31 1068.32 2711.76 1068.92 2713.63 1069.7C2713.63 1069.7 2709.56 1068.89 2703.8 1067.9Z" fill="#4F526D"/>
<path d="M2680.13 876.167C2666.09 872.249 2658.85 873.717 2654.77 873.717H2626.7L2598 924L2600.89 963.348C2606.63 949.307 2623.04 918.768 2646.62 902.615C2664.46 890.401 2686.92 913.88 2706.39 892.33C2709.88 888.461 2692.24 879.547 2680.13 876.167Z" fill="#4F526D"/>
<path d="M2629.87 887.921C2612.83 903.195 2606.78 947.675 2598.63 972.654C2596.62 978.796 2591.56 984.972 2585 990.789C2583.72 991.924 2567 983 2567 983C2567 983 2576.5 998.903 2575 1000C2561.06 1010.17 2545.69 1016.06 2535.69 1020.16C2537.81 1004.65 2536.78 968.932 2546.56 936.41C2558.78 895.758 2584.14 883.024 2605.87 873.718C2623.26 866.273 2657.49 873.718 2657.49 873.718C2657.49 873.718 2645.72 873.718 2629.87 887.921Z" fill="#A3BCD9"/>
<path d="M2526.19 892.329C2500.11 924.067 2521.66 990.776 2535.69 1020.16C2538.11 1006.29 2546.66 943.476 2566.03 908.003C2583.82 875.42 2611.61 876.003 2622.63 870.779C2599.99 872.575 2552.27 860.591 2526.19 892.329Z" fill="#A3BCD9"/>
<path d="M2556.07 918.778C2570.98 880.864 2599.56 872.374 2622.2 870.579C2611.18 875.803 2583.39 875.219 2565.6 907.802C2546.23 943.275 2540.83 1005.31 2538.41 1019.18C2538.41 1018.7 2514.41 1300.03 2514.41 1300.03H2507.17L2533.88 1020.16C2540.67 974.124 2541.15 956.692 2556.07 918.778Z" fill="#4F526D"/>
<path d="M2492.68 1204.97C2517.63 1233.7 2523.89 1280.5 2523.91 1300.32L2510.63 1302.75C2508.99 1293.8 2515.45 1276.36 2505.33 1241.14C2495.2 1205.92 2457.46 1174.08 2446 1167.19C2451.17 1167.81 2467.74 1176.24 2492.68 1204.97Z" fill="#78B1B0"/>
<path d="M2497.58 1204.07C2524.95 1232.36 2530.92 1279.21 2530.49 1299.11L2515.52 1301.85C2513.88 1292.9 2521.53 1275.25 2510.96 1240.11C2500.39 1204.97 2458.72 1173.85 2446 1167.19C2451.79 1167.7 2470.21 1175.79 2497.58 1204.07Z" fill="#5D8C96"/>
<path d="M2523.1 1141.62C2542.45 1193.81 2540.16 1268.95 2536.6 1300H2523.1C2523.1 1285.5 2532.6 1260.04 2529 1201.94C2525.4 1143.84 2494.03 1083.09 2484 1069C2488.97 1071.46 2503.75 1089.43 2523.1 1141.62Z" fill="#78B1B0"/>
<path d="M2528.07 1141.62C2549.89 1193.81 2547.31 1268.95 2543.29 1300H2528.07C2528.07 1285.5 2538.79 1260.04 2534.73 1201.94C2530.67 1143.84 2495.31 1083.09 2484 1069C2489.6 1071.46 2506.26 1089.43 2528.07 1141.62Z" fill="#5D8C96"/>
<path d="M1203.29 1300.61H1164C1168.37 1294.41 1173.32 1282.76 1181 1284.11C1190.6 1285.8 1183.83 1294.62 1194.5 1293.11C1200.74 1292.22 1205.04 1297.79 1203.29 1300.61Z" fill="#4F526D"/>
<path d="M1224.78 1300H1203C1205.42 1296.64 1208.16 1290.33 1212.42 1291.06C1217.75 1291.97 1223.5 1296.5 1223.5 1296.5C1223.5 1296.5 1225.75 1298.47 1224.78 1300Z" fill="#4F526D"/>
<path d="M1936.29 1300.61H1897C1901.37 1294.41 1896.93 1289.21 1903.5 1285C1916 1277 1916.83 1286.51 1927.5 1285C1933.74 1284.12 1938.04 1297.79 1936.29 1300.61Z" fill="#4F526D"/>
<path d="M1965.5 1300H1936C1938.42 1296.64 1947.74 1291.27 1952 1292C1957.32 1292.92 1960.5 1295 1960.5 1295C1960.5 1295 1966.47 1298.47 1965.5 1300Z" fill="#4F526D"/>
<path d="M1901.95 1301H1888C1889.14 1297.67 1893.55 1292.34 1895.57 1293.07C1898.08 1293.98 1899.59 1296.04 1899.59 1296.04C1899.59 1296.04 1902.41 1299.49 1901.95 1301Z" fill="#4F526D"/>
<path d="M1269 411H1548C1549.66 411 1551 412.343 1551 414V571.724C1551 573.381 1549.66 574.724 1548 574.724H1492.32C1485.14 574.724 1479.32 580.545 1479.32 587.724V626.302C1479.32 628.787 1476.47 630.195 1474.49 628.684L1407.5 577.401C1405.23 575.665 1402.45 574.724 1399.59 574.724H1269C1267.34 574.724 1266 573.381 1266 571.724V414C1266 412.343 1267.34 411 1269 411Z" stroke="#A3BCD9" stroke-width="10"/>
<rect width="148.15" height="24.5714" rx="8" transform="matrix(1 0 0 -1 1377.96 455.143)" fill="#A3BCD9"/>
<rect width="148.15" height="24.5714" rx="8" transform="matrix(1 0 0 -1 1377.96 494.457)" fill="#A3BCD9"/>
<rect width="87.0705" height="24.5714" rx="8" transform="matrix(1 0 0 -1 1379.26 533.771)" fill="#A3BCD9"/>
<path d="M1310.38 461.9L1317.02 471.114L1337.67 452.686" stroke="#A3BCD9" stroke-width="10" stroke-linecap="round" stroke-linejoin="round"/>
<mask id="path-78-inside-2_119_149" fill="white">
<rect x="1289.59" y="430.572" width="68.8767" height="63.8857" rx="8"/>
</mask>
<rect x="1289.59" y="430.572" width="68.8767" height="63.8857" rx="8" stroke="#A3BCD9" stroke-width="20" mask="url(#path-78-inside-2_119_149)"/>
<rect x="329" y="1300" width="2400" height="10" fill="#4F526D"/>
<circle cx="964.074" cy="671.318" r="20" fill="#ECC5AF"/>
<path d="M946.073 679.818L983.074 665.318L1024.56 794.746L996.317 804.861L946.073 679.818Z" fill="#ECC5AF"/>
<path d="M1022.48 810.683L1000.28 790.053L1088.28 703.533L1100.41 719.314L1022.48 810.683Z" fill="#ECC5AF"/>
<circle cx="1011.01" cy="800.669" r="15" transform="rotate(-115.965 1011.01 800.669)" fill="#ECC5AF"/>
<circle cx="1095.95" cy="709.751" r="10" transform="rotate(-102.98 1095.95 709.751)" fill="#ECC5AF"/>
<path d="M1110.91 712.415L1100.36 719.276L1087.04 704.652L1096.3 690.627L1106.03 673.026C1110.72 678.646 1101.7 685.743 1104.56 692.694C1104.56 692.694 1124.63 667.784 1128.83 674.073L1110.59 693.629C1110.59 693.629 1130.63 673.19 1133.72 679.472L1114.59 697.234C1114.59 697.234 1133.7 681.708 1136.13 686.644L1117.92 701.728C1117.92 701.728 1135.44 689.77 1137.42 693.808L1119.9 705.766L1110.91 712.415Z" fill="#ECC5AF"/>
<path fill-rule="evenodd" clip-rule="evenodd" d="M945.941 679.756C944.579 676.965 943.85 673.813 943.935 670.494C944.216 659.451 953.395 650.728 964.437 651.009C973.677 651.244 981.293 657.71 983.369 666.284L1007.87 732.641L966.992 747.105L945.941 679.756Z" fill="#78B1B0"/>
<rect x="1115.17" y="658" width="26" height="54" rx="2" transform="rotate(20.789 1115.17 658)" fill="#3E425D"/>
<rect x="1115.84" y="664.674" width="20" height="44" transform="rotate(20.789 1115.84 664.674)" fill="#668DBA"/>
<rect x="1121" y="662.354" width="12" height="2" rx="1" transform="rotate(20.789 1121 662.354)" fill="#668DBA"/>
<g clip-path="url(#clip0_119_149)">
<ellipse cx="924.852" cy="847" rx="44.5" ry="50" fill="#3E425D"/>
<circle cx="964.156" cy="1028.55" r="20" transform="rotate(4.85864 964.156 1028.55)" fill="#ECC5AF"/>
<path d="M998.078 1255.24L968.186 1252.7L944.228 1026.85L984.084 1030.24L998.078 1255.24Z" fill="#ECC5AF"/>
<circle cx="983.132" cy="1253.97" r="15" transform="rotate(4.85864 983.132 1253.97)" fill="#ECC5AF"/>
<path d="M1044.86 1300.48C1044.86 1300.48 974.234 1300.74 970.669 1300.78C967.105 1300.83 957.339 1293.63 960.753 1281.09C964.587 1267 967.671 1250.01 967.671 1250.01C967.671 1250.01 976.807 1254.72 983.065 1254.5C988.906 1254.3 997.565 1249.5 997.565 1249.5C997.565 1249.5 1002.07 1274.5 1022.07 1279.5C1036.85 1283.2 1049.18 1292.7 1044.86 1300.48Z" fill="#3E425D"/>
<path d="M1044.86 1300.48C1044.86 1300.48 977.774 1300.78 970.67 1300.78C963.565 1300.78 956.652 1299.54 960.065 1287C960.065 1287 959.383 1295 972.565 1295L1011.57 1295C1011.57 1295 1016.52 1277.04 1027.07 1280.5C1041.54 1285.26 1049.18 1292.7 1044.86 1300.48Z" fill="#5D8C96"/>
<path fill-rule="evenodd" clip-rule="evenodd" d="M1011.3 1274.03C1007.64 1276.03 1004.68 1278.62 1003.29 1280.17C1001.43 1282.23 999.166 1278.35 1000.44 1277.32C1000.55 1277.22 1000.7 1277.1 1000.89 1276.95C1002.24 1275.83 1005.36 1273.24 1008.43 1271.33C1009.32 1272.27 1010.27 1273.18 1011.3 1274.03Z" fill="#5D8C96"/>
<path fill-rule="evenodd" clip-rule="evenodd" d="M1003.01 1263.9C999.285 1265.64 994.627 1269.5 992.887 1270.95C992.704 1271.1 992.552 1271.22 992.438 1271.32C991.166 1272.35 993.429 1276.23 995.287 1274.17C996.899 1272.38 1000.6 1269.2 1005.05 1267.14C1004.3 1266.07 1003.63 1264.98 1003.01 1263.9Z" fill="#5D8C96"/>
<path fill-rule="evenodd" clip-rule="evenodd" d="M897.427 839L968.927 851L984.114 1023.42C984.699 1025.6 984.922 1027.92 984.72 1030.3L1001.66 1232.46L956.768 1235.17L934.401 1026.02L897.427 839Z" fill="#373A52"/>
<path d="M723.489 1213.84L751.308 1225.07L874.653 1034.37L837.56 1019.4L723.489 1213.84Z" fill="#ECC5AF"/>
<circle r="15" transform="matrix(-0.927305 -0.374307 -0.374307 0.927305 737.398 1219.45)" fill="#ECC5AF"/>
<path d="M762.35 1297.4C762.35 1297.4 702.362 1260.12 699.316 1258.27C696.271 1256.41 691.817 1245.13 701.369 1236.31C712.099 1226.41 723.73 1213.65 723.73 1213.65C723.73 1213.65 728.973 1222.49 734.393 1225.62C739.451 1228.55 749.335 1229.09 749.335 1229.09C749.335 1229.09 739.876 1252.66 754.17 1267.52C764.737 1278.5 770.142 1293.09 762.35 1297.4Z" fill="#3E425D"/>
<path d="M762.35 1297.4C762.35 1297.4 705.337 1262.04 699.316 1258.27C693.296 1254.5 688.095 1249.77 697.648 1240.96C697.648 1240.96 692.822 1247.37 703.993 1254.37L737.043 1275.08C737.043 1275.08 750.778 1262.48 757.877 1271.02C767.621 1282.74 770.142 1293.09 762.35 1297.4Z" fill="#5D8C96"/>
<path fill-rule="evenodd" clip-rule="evenodd" d="M747.953 1257.16C743.79 1256.92 739.905 1257.54 737.901 1258.11C735.233 1258.87 735.373 1254.39 737.002 1254.18C737.148 1254.17 737.343 1254.14 737.579 1254.11C739.321 1253.88 743.332 1253.34 746.951 1253.35C747.203 1254.62 747.532 1255.9 747.953 1257.16Z" fill="#5D8C96"/>
<path fill-rule="evenodd" clip-rule="evenodd" d="M746.307 1244.19C742.222 1243.68 736.225 1244.48 733.985 1244.78C733.749 1244.81 733.554 1244.83 733.408 1244.85C731.779 1245.06 731.639 1249.54 734.307 1248.78C736.622 1248.12 741.447 1247.39 746.311 1248.01C746.25 1246.71 746.253 1245.43 746.307 1244.19Z" fill="#5D8C96"/>
<path fill-rule="evenodd" clip-rule="evenodd" d="M969.184 850.605L897.215 839.236L835.604 1023.01L724.864 1191.05L762.983 1214.92L879.036 1047.31C880.521 1045.76 881.746 1044.01 882.649 1042.09L882.723 1041.99L882.703 1041.98C883.201 1040.9 883.599 1039.77 883.884 1038.59L883.943 1038.61L969.184 850.605Z" fill="#3E425D"/>
</g>
<path fill-rule="evenodd" clip-rule="evenodd" d="M935.494 672C943.574 672 950.124 663.046 950.124 652C950.124 651.665 950.118 651.331 950.106 651H961C965.418 651 969 654.582 969 659V844H885V666C885 657.716 891.716 651 900 651H920.883C920.871 651.331 920.865 651.665 920.865 652C920.865 663.046 927.415 672 935.494 672Z" fill="#4F526D"/>
<path d="M925.974 624H952.474L951.474 652H920.474L925.974 624Z" fill="#ECC5AF"/>
<path d="M951.474 652C951.474 657.304 949.841 662.391 946.934 666.142C944.027 669.893 940.084 672 935.974 672C931.863 672 927.92 669.893 925.013 666.142C922.107 662.391 920.474 657.304 920.474 652L935.974 652H951.474Z" fill="#ECC5AF"/>
<path d="M925.974 624H952.974C952.974 624 952.09 627.797 950.974 630C949.65 632.613 947.974 634.5 946.474 636C944.974 637.5 942.781 639.079 939.974 640.5C935.184 642.924 932.923 643.21 927.474 644C925.819 644.24 921.974 644.5 921.974 644.5L923.474 636L925.974 624Z" fill="#D6AB93"/>
<path d="M969.974 584.5C971.307 586.5 972.474 589 972.474 592.5C972.319 594.027 968.931 595.028 968.679 596.5C965.386 615.782 954.006 630 940.474 630C924.365 630 911.307 609.853 911.307 585C911.307 560.147 924.365 540 940.474 540C956.582 540 969.974 559.647 969.974 584.5Z" fill="#ECC5AF"/>
<path fill-rule="evenodd" clip-rule="evenodd" d="M966.927 604C965.886 607.444 964.57 610.652 963.024 613.555C962.179 613.073 961.395 612.478 960.695 611.778C958.633 609.715 957.474 606.917 957.474 604L966.927 604Z" fill="#371A1A"/>
<path fill-rule="evenodd" clip-rule="evenodd" d="M963.023 613.555C962.179 613.073 961.395 612.478 960.695 611.778C960.01 611.092 959.424 610.326 958.947 609.5H958.974H964.949C964.356 610.907 963.714 612.259 963.025 613.552C963.024 613.553 963.023 613.554 963.023 613.555Z" fill="#BB5C5C"/>
<path d="M973.346 590.265C972.242 587.216 969.481 579.984 969.481 581.12C969.481 584.676 970.585 585.692 970.585 590.773C970.585 593.978 967.424 593.002 967.474 593.5C967.974 598.5 974.699 594.001 973.346 590.265Z" fill="#B4796C"/>
<circle cx="946.474" cy="598" r="9" fill="#EFA190"/>
<ellipse cx="953.474" cy="581" rx="3" ry="6" fill="#371A1A"/>
<path d="M952.248 568C955.403 568 960.862 569.333 960.452 570.665C959.527 573.668 955.581 570.665 952.658 570.665C949.735 570.665 945.275 571.998 945.275 571.998C942.119 571.998 949.092 568 952.248 568Z" fill="#371A1A"/>
<ellipse cx="927.794" cy="589.401" rx="8" ry="12" transform="rotate(-12 927.794 589.401)" fill="#ECC5AF"/>
<ellipse cx="927.794" cy="589.401" rx="4" ry="7" transform="rotate(-12 927.794 589.401)" fill="#BB5C5C"/>
<path fill-rule="evenodd" clip-rule="evenodd" d="M971.867 564.071C969.447 564.696 967.603 564.334 966.433 563.882C966.448 563.923 966.463 563.964 966.478 564.005C966.488 564.032 966.497 564.058 966.507 564.084C963.907 563.188 961.793 560.679 959.615 558.094C956.793 554.746 953.865 551.272 949.636 551.009C943.269 550.613 937.767 558.924 935.812 561.892L930.785 579.701C930.775 579.671 930.766 579.641 930.757 579.611C930.756 579.615 930.756 579.618 930.756 579.621C929.069 578.299 927.157 577.697 925.299 578.088C920.977 578.996 918.591 584.933 919.969 591.346C921.347 597.76 925.967 602.223 930.289 601.314L930.334 601.304L928.474 609.586L920.376 617.616C920.376 617.616 920.376 617.617 920.376 617.617C920.376 617.617 920.376 617.617 920.375 617.617C919.193 617.333 918.06 616.986 916.974 616.58C904.023 611.743 897.788 598.651 895 587.741C894.28 584.924 893.79 582.252 893.474 579.905C891.007 561.601 898.974 542.803 898.974 542.803C905.974 529.941 934.307 539.136 934.307 539.136C934.307 539.136 933.717 523.009 950.055 517.864C954.139 516.578 957.557 516.795 960.424 518.066C969.025 521.877 972.667 535.165 974.474 545.771C974.491 545.869 974.507 545.967 974.524 546.064C974.749 547.349 975.008 548.627 975.265 549.874C975.301 550.048 975.337 550.222 975.372 550.395L975.372 550.396L975.373 550.396C975.449 550.768 975.526 551.138 975.6 551.503C976.208 554.477 976.706 557.196 976.556 559.299C976.43 561.073 975.844 562.408 974.474 563.085C973.543 563.546 972.673 563.863 971.867 564.071Z" fill="#101E39"/>
<circle r="20" transform="matrix(-1 0 0 1 895 671)" fill="#ECC5AF"/>
<path d="M913 679.5L876 665L834.513 794.428L862.756 804.542L913 679.5Z" fill="#ECC5AF"/>
<path d="M863.026 803.929L834.756 793L795.5 910L815 914L863.026 803.929Z" fill="#ECC5AF"/>
<circle r="15" transform="matrix(-1 0 0 1 849 798)" fill="#ECC5AF"/>
<circle r="10" transform="matrix(-0.974429 0.224697 0.224697 0.974429 804.449 914.175)" fill="#ECC5AF"/>
<path d="M813.394 926.46L814.942 913.966L795.963 908.394L787.408 922.862L775.845 939.318C782.95 941.074 785.381 929.854 792.883 929.382C792.883 929.382 779.273 958.331 786.769 959.359L796.364 934.396C796.364 934.396 786.761 961.359 793.761 961.386L801.356 936.415C801.356 936.415 795.765 960.394 801.265 960.414L806.852 937.435C806.852 937.435 803.773 958.424 808.273 958.441L811.352 937.453L813.394 926.46Z" fill="#ECC5AF"/>
<path fill-rule="evenodd" clip-rule="evenodd" d="M912.758 680.209C914.191 677.453 915 674.321 915 671C915 659.954 906.046 651 895 651C885.757 651 877.979 657.27 875.686 665.788L849.5 731.5L890 747L912.758 680.209Z" fill="#78B1B0"/>
<path d="M1399.45 1300H1437.5C1441.07 1300 1452.5 1285 1452.5 1272C1452.5 1265.68 1445.74 1249 1445.74 1249H1416.19C1416.19 1249 1410.78 1267.42 1406.84 1280.64C1403.03 1289.63 1397.36 1293.57 1399.45 1300Z" fill="#ECC5AF"/>
<path d="M1416.41 1249H1445.46L1487.09 1026H1448.36L1416.41 1249Z" fill="#ECC5AF"/>
<ellipse rx="14.523" ry="15" transform="matrix(-1 0 0 1 1430.93 1249)" fill="#ECC5AF"/>
<path d="M1530.66 830H1480.31L1448.36 1026H1487.09L1530.66 830Z" fill="#ECC5AF"/>
<ellipse rx="19.364" ry="20" transform="matrix(-1 0 0 1 1467.73 1026)" fill="#ECC5AF"/>
<path d="M1656.05 1300H1618C1614.44 1300 1603 1285 1603 1272C1603 1265.68 1609.76 1249 1609.76 1249H1639.31C1639.31 1249 1644.72 1267.42 1648.66 1280.64C1652.48 1289.63 1658.14 1293.57 1656.05 1300Z" fill="#ECC5AF"/>
<path d="M1639.02 1249H1609.55L1567.31 1026H1606.6L1639.02 1249Z" fill="#ECC5AF"/>
<ellipse cx="1624.28" cy="1249" rx="14.7349" ry="15" fill="#ECC5AF"/>
<path d="M1523.1 830H1574.18L1606.6 1026H1567.31L1523.1 830Z" fill="#ECC5AF"/>
<ellipse cx="1586.95" cy="1026" rx="19.6466" ry="20" fill="#ECC5AF"/>
<circle cx="1527" cy="846" r="50" fill="#3E425D"/>
<rect x="1477" y="848" width="100" height="62" fill="#3E425D"/>
<path d="M1399.16 1300H1437.21C1440.78 1300 1452.21 1285 1452.21 1272C1452.21 1265.68 1445.71 1249 1445.71 1249C1445.71 1249 1436.22 1251.78 1429.71 1251.5C1423.91 1251.25 1415.71 1249 1415.71 1249C1415.71 1249 1410.49 1267.42 1406.55 1280.64C1402.74 1289.63 1397.07 1293.57 1399.16 1300Z" fill="#3E425D"/>
<path d="M1399.16 1300H1437.21C1440.78 1300 1452.71 1291.5 1452.71 1278.5C1452.71 1272.18 1451.71 1268 1451.71 1268C1451.71 1268 1450.98 1276.6 1448.71 1281.5C1446.21 1286.93 1439.21 1293.5 1439.21 1293.5C1439.21 1293.5 1438.21 1290.5 1433.71 1285.5C1429.21 1280.5 1409.21 1277 1404.71 1281.5C1400.21 1286 1397.07 1293.57 1399.16 1300Z" fill="#5D8C96"/>
<path d="M1422.21 1275C1427.88 1275.44 1433.38 1278 1435.71 1279.5C1438.05 1281 1439.21 1276.67 1437.71 1276C1436.21 1275.33 1429.21 1272 1424.71 1271.5C1420.21 1271 1415.21 1271.67 1413.21 1272.5C1411.21 1273.33 1411.71 1276 1412.21 1276C1412.71 1276 1418.51 1274.71 1422.21 1275Z" fill="#5D8C96"/>
<path d="M1424.54 1266.67C1430.21 1267.11 1435.71 1269.67 1438.04 1271.17C1440.38 1272.67 1441.54 1268.34 1440.04 1267.67C1438.54 1267.01 1431.54 1263.67 1427.04 1263.17C1422.54 1262.67 1417.54 1263.34 1415.54 1264.17C1413.54 1265.01 1414.04 1267.67 1414.54 1267.67C1415.04 1267.67 1420.84 1266.38 1424.54 1266.67Z" fill="#5D8C96"/>
<path fill-rule="evenodd" clip-rule="evenodd" d="M1552 830H1479.87L1448.99 1019.42C1448.3 1021.48 1447.92 1023.69 1447.92 1026L1415 1226L1458.08 1232.5L1496.81 1026L1552 830Z" fill="#3E425D"/>
<path fill-rule="evenodd" clip-rule="evenodd" d="M1501 830H1574.18L1605.51 1019.42C1606.22 1021.48 1606.6 1023.69 1606.6 1026L1640 1226L1596.29 1232.5L1556.99 1026L1501 830Z" fill="#3E425D"/>
<path d="M1656.05 1300H1618C1614.44 1300 1603 1285 1603 1272C1603 1265.68 1609.5 1249 1609.5 1249C1609.5 1249 1619 1251.78 1625.5 1251.5C1631.3 1251.25 1639.5 1249 1639.5 1249C1639.5 1249 1644.72 1267.42 1648.66 1280.64C1652.48 1289.63 1658.14 1293.57 1656.05 1300Z" fill="#3E425D"/>
<path d="M1656.05 1300H1618C1614.44 1300 1602.5 1291.5 1602.5 1278.5C1602.5 1272.18 1603.5 1268 1603.5 1268C1603.5 1268 1604.24 1276.6 1606.5 1281.5C1609.01 1286.93 1616 1293.5 1616 1293.5C1616 1293.5 1617 1290.5 1621.5 1285.5C1626 1280.5 1646 1277 1650.5 1281.5C1655 1286 1658.14 1293.57 1656.05 1300Z" fill="#5D8C96"/>
<path d="M1633 1275C1627.33 1275.44 1621.83 1278 1619.5 1279.5C1617.17 1281 1616 1276.67 1617.5 1276C1619 1275.33 1626 1272 1630.5 1271.5C1635 1271 1640 1271.67 1642 1272.5C1644 1273.33 1643.5 1276 1643 1276C1642.5 1276 1636.7 1274.71 1633 1275Z" fill="#5D8C96"/>
<path d="M1630.67 1266.67C1625 1267.11 1619.5 1269.67 1617.17 1271.17C1614.84 1272.67 1613.67 1268.34 1615.17 1267.67C1616.67 1267.01 1623.67 1263.67 1628.17 1263.17C1632.67 1262.67 1637.67 1263.34 1639.67 1264.17C1641.67 1265.01 1641.17 1267.67 1640.67 1267.67C1640.17 1267.67 1634.38 1266.38 1630.67 1266.67Z" fill="#5D8C96"/>
<circle cx="1578" cy="671" r="20" fill="#ECC5AF"/>
<path d="M1560 679.5L1597 665L1638.49 794.428L1610.24 804.542L1560 679.5Z" fill="#ECC5AF"/>
<path d="M1609.97 803.929L1638.24 793L1677.5 910L1658 914L1609.97 803.929Z" fill="#ECC5AF"/>
<circle cx="1624" cy="798" r="15" fill="#ECC5AF"/>
<circle cx="1668.55" cy="914.175" r="10" transform="rotate(12.985 1668.55 914.175)" fill="#ECC5AF"/>
<path d="M1659.61 926.46L1658.06 913.966L1677.04 908.394L1685.59 922.862L1697.15 939.318C1690.05 941.074 1687.62 929.854 1680.12 929.382C1680.12 929.382 1693.73 958.331 1686.23 959.359L1676.64 934.396C1676.64 934.396 1686.24 961.359 1679.24 961.386L1671.64 936.415C1671.64 936.415 1677.23 960.394 1671.73 960.414L1666.15 937.435C1666.15 937.435 1669.23 958.424 1664.73 958.441L1661.65 937.453L1659.61 926.46Z" fill="#ECC5AF"/>
<path fill-rule="evenodd" clip-rule="evenodd" d="M1560.24 680.209C1558.81 677.453 1558 674.321 1558 671C1558 659.954 1566.95 651 1578 651C1587.24 651 1595.02 657.27 1597.31 665.788L1623.5 731.5L1583 747L1560.24 680.209Z" fill="#78B1B0"/>
<circle r="20" transform="matrix(-1 0 0 1 1477 671.318)" fill="#ECC5AF"/>
<path d="M1495 679.818L1458 665.318L1416.51 794.746L1444.76 804.861L1495 679.818Z" fill="#ECC5AF"/>
<path d="M1418.59 810.683L1440.8 790.053L1352.79 703.533L1340.66 719.314L1418.59 810.683Z" fill="#ECC5AF"/>
<circle r="15" transform="matrix(0.437825 -0.89906 -0.89906 -0.437825 1430.06 800.669)" fill="#ECC5AF"/>
<circle r="10" transform="matrix(0.224614 -0.974448 -0.974448 -0.224614 1345.12 709.751)" fill="#ECC5AF"/>
<path fill-rule="evenodd" clip-rule="evenodd" d="M1495.13 679.756C1496.49 676.965 1497.22 673.813 1497.14 670.494C1496.86 659.451 1487.68 650.728 1476.64 651.009C1467.4 651.244 1459.78 657.71 1457.71 666.284L1433.2 732.641L1474.08 747.105L1495.13 679.756Z" fill="#78B1B0"/>
<path fill-rule="evenodd" clip-rule="evenodd" d="M1527 672C1538.05 672 1547 663.046 1547 652C1547 651.665 1546.99 651.331 1546.98 651H1547H1577V844H1477V651H1507H1507.02C1507.01 651.331 1507 651.665 1507 652C1507 663.046 1515.95 672 1527 672Z" fill="#4F526D"/>
<g clip-path="url(#clip1_119_149)">
<path d="M2260.76 1253.36L2230.93 1250.14L2212.13 1023.81L2251.9 1028.1L2260.76 1253.36Z" fill="#ECC5AF"/>
<circle cx="2245.84" cy="1251.75" r="15" transform="rotate(6.1645 2245.84 1251.75)" fill="#ECC5AF"/>
<path d="M2188.43 824.11L2240.13 829.694L2251.9 1028.1L2212.13 1023.81L2188.43 824.11Z" fill="#ECC5AF"/>
<circle cx="2232.01" cy="1025.96" r="20" transform="rotate(6.1645 2232.01 1025.96)" fill="#ECC5AF"/>
<path fill-rule="evenodd" clip-rule="evenodd" d="M2166.06 821.694L2240.13 829.694L2251.5 1021.44C2251.99 1023.57 2252.14 1025.81 2251.9 1028.1L2264.22 1230.6L2219.28 1232.28L2201.69 1022.68L2166.06 821.694Z" fill="#373A52"/>
<path d="M2308.16 1299.6C2308.16 1299.6 2237.53 1299.86 2233.97 1299.91C2230.4 1299.95 2220.64 1292.76 2224.05 1280.21C2227.89 1266.12 2230.97 1249.14 2230.97 1249.14C2230.97 1249.14 2240.11 1253.84 2246.36 1253.62C2252.2 1253.42 2260.86 1248.62 2260.86 1248.62C2260.86 1248.62 2265.36 1273.62 2285.36 1278.62C2300.15 1282.32 2312.48 1291.82 2308.16 1299.6Z" fill="#3E425D"/>
<path d="M2308.16 1299.6C2308.16 1299.6 2241.07 1299.91 2233.97 1299.91C2226.86 1299.91 2219.95 1298.67 2223.36 1286.12C2223.36 1286.12 2222.68 1294.12 2235.86 1294.12L2274.86 1294.12C2274.86 1294.12 2279.82 1276.16 2290.36 1279.62C2304.84 1284.38 2312.48 1291.82 2308.16 1299.6Z" fill="#5D8C96"/>
<path fill-rule="evenodd" clip-rule="evenodd" d="M2274.6 1273.15C2270.94 1275.16 2267.98 1277.75 2266.59 1279.29C2264.73 1281.35 2262.46 1277.48 2263.74 1276.44C2263.85 1276.35 2264 1276.22 2264.19 1276.07C2265.54 1274.95 2268.65 1272.37 2271.73 1270.46C2272.62 1271.4 2273.57 1272.3 2274.6 1273.15Z" fill="#5D8C96"/>
<path fill-rule="evenodd" clip-rule="evenodd" d="M2266.31 1263.03C2262.58 1264.77 2257.93 1268.63 2256.19 1270.07C2256 1270.22 2255.85 1270.35 2255.74 1270.44C2254.46 1271.48 2256.73 1275.35 2258.59 1273.29C2260.2 1271.51 2263.9 1268.33 2268.35 1266.27C2267.6 1265.19 2266.93 1264.11 2266.31 1263.03Z" fill="#5D8C96"/>
<circle cx="2192.84" cy="846" r="50" fill="#3E425D"/>
<path d="M2160.42 1255.65L2131.71 1246.93L2155.4 1021.06L2193.68 1032.69L2160.42 1255.65Z" fill="#ECC5AF"/>
<circle cx="2146.06" cy="1251.29" r="15" transform="rotate(16.902 2146.06 1251.29)" fill="#ECC5AF"/>
<path fill-rule="evenodd" clip-rule="evenodd" d="M2144.72 833.323L2219.09 835.565L2194.53 1026.07C2194.62 1028.25 2194.35 1030.49 2193.68 1032.69L2168.06 1233.94L2123.59 1227.22L2145.36 1018.01L2144.72 833.323Z" fill="#3E425D"/>
<path d="M2208.28 1300.02C2208.28 1300.02 2137.66 1300.28 2134.09 1300.32C2130.53 1300.37 2120.76 1293.17 2124.18 1280.63C2128.01 1266.54 2131.09 1249.55 2131.09 1249.55C2131.09 1249.55 2140.23 1254.26 2146.49 1254.04C2152.33 1253.83 2160.99 1249.04 2160.99 1249.04C2160.99 1249.04 2165.49 1274.04 2185.49 1279.04C2200.27 1282.73 2212.6 1292.23 2208.28 1300.02Z" fill="#3E425D"/>
<path d="M2208.28 1300.02C2208.28 1300.02 2141.2 1300.32 2134.09 1300.32C2126.99 1300.32 2120.08 1299.08 2123.49 1286.54C2123.49 1286.54 2122.81 1294.54 2135.99 1294.54L2174.99 1294.54C2174.99 1294.54 2179.94 1276.57 2190.49 1280.04C2204.97 1284.8 2212.6 1292.23 2208.28 1300.02Z" fill="#5D8C96"/>
<path fill-rule="evenodd" clip-rule="evenodd" d="M2174.72 1273.57C2171.07 1275.57 2168.11 1278.16 2166.71 1279.71C2164.85 1281.77 2162.59 1277.89 2163.86 1276.86C2163.98 1276.76 2164.13 1276.64 2164.31 1276.48C2165.66 1275.36 2168.78 1272.78 2171.85 1270.87C2172.74 1271.81 2173.7 1272.72 2174.72 1273.57Z" fill="#5D8C96"/>
<path fill-rule="evenodd" clip-rule="evenodd" d="M2166.44 1263.44C2162.71 1265.18 2158.05 1269.04 2156.31 1270.48C2156.13 1270.64 2155.98 1270.76 2155.86 1270.86C2154.59 1271.89 2156.85 1275.77 2158.71 1273.71C2160.32 1271.92 2164.02 1268.74 2168.47 1266.68C2167.73 1265.61 2167.05 1264.52 2166.44 1263.44Z" fill="#5D8C96"/>
</g>
<circle cx="2244" cy="671" r="20" fill="#ECC5AF"/>
<path d="M2226 679.5L2263 665L2304.49 794.428L2276.24 804.542L2226 679.5Z" fill="#ECC5AF"/>
<path d="M2280.53 809.822L2300.56 787.076L2389.4 872.735L2373.95 885.286L2280.53 809.822Z" fill="#ECC5AF"/>
<circle cx="2290.23" cy="798.087" r="15" transform="rotate(-27.4964 2290.23 798.087)" fill="#ECC5AF"/>
<circle cx="2383.39" cy="880.571" r="10" transform="rotate(-14.5113 2383.39 880.571)" fill="#ECC5AF"/>
<path d="M2381.12 895.598L2373.98 885.23L2388.25 871.525L2402.51 880.408L2420.37 889.667C2414.88 894.505 2407.54 885.675 2400.67 888.72C2400.67 888.72 2426.11 908.115 2419.93 912.488L2399.89 894.774C2399.89 894.774 2420.86 914.259 2414.66 917.514L2396.4 898.87C2396.4 898.87 2412.43 917.559 2407.56 920.117L2391.99 902.313C2391.99 902.313 2404.42 919.509 2400.43 921.602L2388.01 904.406L2381.12 895.598Z" fill="#ECC5AF"/>
<path fill-rule="evenodd" clip-rule="evenodd" d="M2226.24 680.209C2224.81 677.453 2224 674.321 2224 671C2224 659.954 2232.95 651 2244 651C2253.24 651 2261.02 657.27 2263.31 665.788L2289.5 731.5L2249 747L2226.24 680.209Z" fill="#78B1B0"/>
<path fill-rule="evenodd" clip-rule="evenodd" d="M2193 672C2204.05 672 2213 663.046 2213 652C2213 651.665 2212.99 651.331 2212.98 651H2213H2243V844H2143V651H2173H2173.02C2173.01 651.331 2173 651.665 2173 652C2173 663.046 2181.95 672 2193 672Z" fill="#4F526D"/>
<rect width="26" height="54" rx="2" transform="matrix(0.682323 -0.731051 -0.731051 -0.682323 1688.48 969.853)" fill="#3E425D"/>
<rect width="20" height="44" transform="matrix(0.682323 -0.731051 -0.731051 -0.682323 1686.14 963.566)" fill="#668DBA"/>
<rect width="12" height="2" rx="1" transform="matrix(0.682323 -0.731051 -0.731051 -0.682323 1691.79 963.371)" fill="#668DBA"/>
<path d="M1511 623H1543L1547 651H1507L1511 623Z" fill="#ECC5AF"/>
<circle cx="1527" cy="652" r="20" fill="#ECC5AF"/>
<path d="M1511 623H1543L1544 630C1544 630 1542.7 631.828 1541 633.5C1539.3 635.172 1534.12 638.579 1530.5 640C1524.32 642.424 1521.53 642.71 1514.5 643.5C1512.37 643.74 1508 644 1508 644L1509 637L1511 623Z" fill="#D6AB93"/>
<ellipse cx="1491.32" cy="589.401" rx="8" ry="12" transform="rotate(-12 1491.32 589.401)" fill="#ECC5AF"/>
<ellipse cx="1491.32" cy="589.401" rx="4" ry="7" transform="rotate(-12 1491.32 589.401)" fill="#BB5C5C"/>
<ellipse rx="8" ry="12" transform="matrix(-0.978148 -0.207912 -0.207912 0.978148 1562.32 589.401)" fill="#ECC5AF"/>
<ellipse rx="4" ry="7" transform="matrix(-0.978148 -0.207912 -0.207912 0.978148 1562.32 589.401)" fill="#BB5C5C"/>
<ellipse cx="1527" cy="584" rx="34.0278" ry="45" fill="#ECC5AF"/>
<path d="M1536 605.333C1536 608.333 1531.5 609.5 1530.68 609.833C1529.86 610.167 1528.6 610.333 1527 610.333C1525.72 610.333 1524.58 610.098 1523.32 609.833C1520.78 609.299 1518 608.251 1518 605.333C1518 602.416 1523.49 605.333 1527 605.333C1530.51 605.333 1536 602.333 1536 605.333Z" fill="#371A1A"/>
<path d="M1523.18 590.265C1524.28 587.216 1527.04 579.984 1527.04 581.12C1527.04 584.676 1525.94 585.692 1525.94 590.773C1525.94 593.978 1529.1 593.002 1529.05 593.5C1528.55 598.5 1521.83 594.001 1523.18 590.265Z" fill="#B4796C"/>
<circle cx="1505" cy="598" r="9" fill="#EFA190"/>
<circle cx="1549" cy="598" r="9" fill="#EFA190"/>
<path d="M1512 577C1515.31 577 1518 579.343 1518 581C1518 582.657 1515.31 579.5 1512 579.5C1508.69 579.5 1506 582.657 1506 581C1506 579.343 1508.69 577 1512 577Z" fill="#371A1A"/>
<path d="M1542 577C1545.31 577 1548 579.343 1548 581C1548 582.657 1545.31 579.5 1542 579.5C1538.69 579.5 1536 582.657 1536 581C1536 579.343 1538.69 577 1542 577Z" fill="#371A1A"/>
<path d="M1510.77 568C1513.93 568 1519.39 569.333 1518.98 570.665C1518.05 573.668 1514.11 570.665 1511.18 570.665C1508.26 570.665 1503.8 571.998 1503.8 571.998C1500.65 571.998 1507.62 568 1510.77 568Z" fill="#371A1A"/>
<path d="M1542.73 568C1539.57 568 1534.11 569.333 1534.52 570.665C1535.45 573.668 1539.4 570.665 1542.32 570.665C1545.24 570.665 1549.7 571.998 1549.7 571.998C1552.86 571.998 1545.88 568 1542.73 568Z" fill="#371A1A"/>
<path fill-rule="evenodd" clip-rule="evenodd" d="M1565.75 565.794L1563.28 577.294C1563.28 577.294 1562.41 578.723 1560.87 580.973C1560.83 580.199 1560.78 579.431 1560.71 578.668L1555.75 561.294C1552.91 562.794 1543.15 564.594 1536.75 563.794C1533 563.325 1530.13 560.44 1527.16 557.455C1523.79 554.071 1520.29 550.559 1515.25 550.294C1507.65 549.894 1501.08 558.294 1498.75 561.294L1493.21 577.898C1493.09 579.071 1493 580.257 1492.95 581.457C1491.21 578.93 1490.21 577.294 1490.21 577.294C1490.21 577.294 1482.14 556.057 1484.25 546.794C1486.75 535.794 1496.95 538.294 1496.95 538.294C1496.95 538.294 1496.25 521.994 1515.75 516.794C1528.66 513.351 1537.84 521.699 1547.52 530.491C1552.46 534.979 1557.53 539.583 1563.28 542.794C1571.18 547.199 1565.75 565.794 1565.75 565.794Z" fill="#101E39"/>
<path d="M2177 623H2209L2213 651H2173L2177 623Z" fill="#ECC5AF"/>
<circle cx="2193" cy="652" r="20" fill="#ECC5AF"/>
<path d="M2177 623H2209L2210 630C2210 630 2208.7 631.828 2207 633.5C2205.3 635.172 2200.12 638.579 2196.5 640C2190.32 642.424 2187.53 642.71 2180.5 643.5C2178.37 643.74 2174 644 2174 644L2175 637L2177 623Z" fill="#D6AB93"/>
<ellipse cx="2157.32" cy="589.401" rx="8" ry="12" transform="rotate(-12 2157.32 589.401)" fill="#ECC5AF"/>
<ellipse cx="2157.32" cy="589.401" rx="4" ry="7" transform="rotate(-12 2157.32 589.401)" fill="#BB5C5C"/>
<ellipse rx="8" ry="12" transform="matrix(-0.978148 -0.207912 -0.207912 0.978148 2228.32 589.401)" fill="#ECC5AF"/>
<ellipse rx="4" ry="7" transform="matrix(-0.978148 -0.207912 -0.207912 0.978148 2228.32 589.401)" fill="#BB5C5C"/>
<ellipse cx="2193" cy="584" rx="34.0278" ry="45" fill="#ECC5AF"/>
<path d="M2204 604C2204 606.917 2202.84 609.715 2200.78 611.778C2198.72 613.841 2195.92 615 2193 615C2190.08 615 2187.28 613.841 2185.22 611.778C2183.16 609.715 2182 606.917 2182 604L2193 604H2204Z" fill="#371A1A"/>
<path fill-rule="evenodd" clip-rule="evenodd" d="M2184.29 610.722C2184.58 610.353 2184.89 610 2185.22 609.666C2187.28 607.603 2190.08 606.444 2193 606.444C2195.92 606.444 2198.72 607.603 2200.78 609.666C2201.11 610 2201.42 610.353 2201.71 610.722C2201.42 611.092 2201.11 611.444 2200.78 611.778C2198.72 613.841 2195.92 615 2193 615C2190.08 615 2187.28 613.841 2185.22 611.778C2184.89 611.444 2184.58 611.092 2184.29 610.722Z" fill="#BB5C5C"/>
<path d="M2189.18 590.265C2190.28 587.216 2193.04 579.984 2193.04 581.12C2193.04 584.676 2191.94 585.692 2191.94 590.773C2191.94 593.978 2195.1 593.002 2195.05 593.5C2194.55 598.5 2187.83 594.001 2189.18 590.265Z" fill="#B4796C"/>
<circle cx="2171" cy="598" r="9" fill="#EFA190"/>
<circle cx="2215" cy="598" r="9" fill="#EFA190"/>
<ellipse cx="2178" cy="581" rx="3" ry="6" fill="#371A1A"/>
<ellipse cx="2208" cy="581" rx="3" ry="6" fill="#371A1A"/>
<path d="M2176.77 568C2179.93 568 2185.39 569.333 2184.98 570.665C2184.05 573.668 2180.11 570.665 2177.18 570.665C2174.26 570.665 2169.8 571.998 2169.8 571.998C2166.65 571.998 2173.62 568 2176.77 568Z" fill="#371A1A"/>
<path d="M2208.73 568C2205.57 568 2200.11 569.333 2200.52 570.665C2201.45 573.668 2205.4 570.665 2208.32 570.665C2211.24 570.665 2215.7 571.998 2215.7 571.998C2218.86 571.998 2211.88 568 2208.73 568Z" fill="#371A1A"/>
<path fill-rule="evenodd" clip-rule="evenodd" d="M2231.75 565.794L2229.28 577.294C2229.28 577.294 2228.41 578.723 2226.87 580.973C2226.83 580.199 2226.78 579.431 2226.71 578.668L2221.75 561.294C2218.91 562.794 2209.15 564.594 2202.75 563.794C2199 563.325 2196.13 560.44 2193.16 557.455C2189.79 554.071 2186.29 550.559 2181.25 550.294C2173.65 549.894 2167.08 558.294 2164.75 561.294L2159.21 577.898C2159.09 579.071 2159 580.257 2158.95 581.457C2157.21 578.93 2156.21 577.294 2156.21 577.294C2156.21 577.294 2148.14 556.057 2150.25 546.794C2152.75 535.794 2162.95 538.294 2162.95 538.294C2162.95 538.294 2162.25 521.994 2181.75 516.794C2194.66 513.351 2203.84 521.699 2213.52 530.491C2218.46 534.979 2223.53 539.583 2229.28 542.794C2237.18 547.199 2231.75 565.794 2231.75 565.794Z" fill="#101E39"/>
<g clip-path="url(#clip2_119_149)">
<circle r="10" transform="matrix(0.369635 -0.929177 -0.929177 -0.369635 1343.47 709.941)" fill="#ECC5AF"/>
<path d="M1328.28 710.307L1338.13 718.384L1352.93 706.691L1346.03 690.984L1339.07 672.112C1333.59 676.957 1341.43 685.339 1337.55 691.777C1337.55 691.777 1321.49 664.113 1316.38 669.693L1330.59 690.527C1329.35 689.036 1326.92 687.223 1324.14 691.199L1326.94 694.744C1326.94 694.744 1323.24 690.524 1320.1 695.035L1322.98 698.683C1322.98 698.683 1320.22 695.191 1317.65 698.882L1320.4 702.373L1328.28 710.307Z" fill="#ECC5AF"/>
</g>
<circle cx="2144.07" cy="671.318" r="20" fill="#ECC5AF"/>
<path d="M2126.07 679.818L2163.07 665.318L2204.56 794.746L2176.32 804.861L2126.07 679.818Z" fill="#ECC5AF"/>
<path d="M2202.48 810.683L2180.28 790.053L2268.28 703.533L2280.41 719.314L2202.48 810.683Z" fill="#ECC5AF"/>
<circle cx="2191.01" cy="800.669" r="15" transform="rotate(-115.965 2191.01 800.669)" fill="#ECC5AF"/>
<path fill-rule="evenodd" clip-rule="evenodd" d="M2125.94 679.756C2124.58 676.965 2123.85 673.813 2123.93 670.494C2124.22 659.451 2133.4 650.728 2144.44 651.009C2153.68 651.244 2161.29 657.71 2163.37 666.284L2187.87 732.641L2146.99 747.105L2125.94 679.756Z" fill="#78B1B0"/>
<rect x="2425.41" y="894.796" width="26" height="54" rx="2" transform="rotate(108.122 2425.41 894.796)" fill="#3E425D"/>
<rect x="2418.77" y="895.781" width="20" height="44" transform="rotate(108.122 2418.77 895.781)" fill="#668DBA"/>
<rect x="2421.33" y="900.827" width="12" height="2" rx="1" transform="rotate(108.122 2421.33 900.827)" fill="#668DBA"/>
<g clip-path="url(#clip3_119_149)">
<circle cx="2275.21" cy="710.546" r="10" transform="rotate(-103.402 2275.21 710.546)" fill="#ECC5AF"/>
<path d="M2290.19 713.099L2279.33 719.657L2266.35 705.931L2274.04 695.082L2277.09 681.185L2275.6 675.025C2283.82 674.133 2280.96 687.164 2283.7 693.426C2283.7 693.426 2288.26 683.741 2292.52 689.999L2289.73 694.316C2289.73 694.316 2293.91 688.529 2297.04 694.788L2293.76 697.891C2293.76 697.891 2298.03 694.249 2300.5 699.167L2297.12 702.361C2297.12 702.361 2300.35 699.304 2302.37 703.327L2299.13 706.384L2290.19 713.099Z" fill="#ECC5AF"/>
</g>
<defs>
<clipPath id="clip0_119_149">
<rect width="470" height="520" fill="white" transform="translate(692 797)"/>
</clipPath>
<clipPath id="clip1_119_149">
<rect width="300" height="520" fill="white" transform="translate(2043 796)"/>
</clipPath>
<clipPath id="clip2_119_149">
<rect width="70" height="70" fill="white" transform="matrix(-0.784702 0.619874 0.619874 0.784702 1333.93 641)"/>
</clipPath>
<clipPath id="clip3_119_149">
<rect width="70" height="70" fill="white" transform="translate(2294.86 644) rotate(46.5983)"/>
</clipPath>
</defs>
</svg>
